<?xml version="1.0" standalone="no"?>
<!DOCTYPE svg PUBLIC "-//W3C//DTD SVG 20010904//EN"
 "http://www.w3.org/TR/2001/REC-SVG-20010904/DTD/svg10.dtd">
<svg version="1.0" xmlns="http://www.w3.org/2000/svg"
 width="371.000000pt" height="357.000000pt" viewBox="0 0 371.000000 357.000000"
 preserveAspectRatio="xMidYMid meet">

<g transform="translate(0.000000,357.000000) scale(0.100000,-0.100000)"
fill="#000000" stroke="none">
<path d="M2050 3307 c-368 -213 -1072 -620 -1330 -768 l-215 -124 -5 -70 -5
-70 -72 -40 -73 -40 0 -85 c0 -84 0 -85 30 -102 l30 -17 0 -566 0 -566 -30
-17 c-30 -17 -30 -18 -30 -102 l0 -85 498 -287 c274 -158 506 -290 514 -293
10 -4 66 23 145 68 70 41 247 143 393 227 146 84 420 243 610 353 190 109 456
263 592 340 l247 142 1 88 c0 48 -3 87 -7 87 -5 0 -16 7 -26 15 -18 13 -19 41
-18 582 l0 568 26 15 c24 14 25 20 25 101 l0 85 -252 146 -253 145 -3 69 -3
69 -249 143 c-136 78 -254 142 -261 142 -8 0 -133 -69 -279 -153z m517 2 c125
-72 232 -135 236 -139 4 -4 -93 -65 -217 -136 -124 -71 -226 -133 -226 -139 0
-5 74 -53 165 -105 91 -52 165 -98 165 -101 0 -4 -125 -79 -277 -167 -153 -88
-344 -198 -424 -245 l-146 -85 -179 104 c-98 56 -180 101 -184 100 -3 -2 -108
-63 -234 -136 -223 -129 -231 -133 -255 -118 -15 8 -122 70 -238 137 -117 68
-213 126 -213 129 1 4 208 126 462 272 253 146 652 376 887 512 234 136 431
247 438 248 6 0 114 -59 240 -131z m253 -239 l0 -70 -40 0 c-53 0 -86 -32 -95
-92 -6 -41 -10 -46 -69 -78 l-63 -33 -77 44 c-42 24 -77 48 -79 52 -2 7 399
245 416 247 4 0 7 -31 7 -70z m254 -186 c122 -70 226 -132 233 -138 9 -8 -21
-30 -120 -87 -269 -154 -1773 -1023 -1792 -1035 -18 -12 -67 14 -505 267 -267
154 -491 284 -499 288 -9 6 2 17 42 40 30 17 57 31 61 31 3 0 6 -15 6 -34 0
-34 1 -35 208 -154 114 -66 230 -132 258 -148 l51 -28 178 102 c98 56 179 101
180 100 2 -2 -4 -42 -13 -91 l-15 -87 23 -25 c66 -71 247 -53 259 26 2 13 -2
55 -9 92 -7 38 -10 70 -8 72 2 2 55 -25 118 -61 l113 -65 86 50 c47 27 246
142 441 255 l355 205 3 65 3 65 33 -6 c73 -12 156 37 156 92 0 56 -49 287 -65
305 -16 18 -19 30 -8 30 3 0 106 -57 227 -126z m-243 86 c41 -22 10 -60 -49
-60 -16 0 -40 8 -52 18 l-23 19 24 16 c27 19 71 22 100 7z m48 -180 c23 -125
25 -150 13 -150 -4 0 -14 46 -20 103 -7 56 -15 118 -19 137 -3 19 -3 33 0 30
3 -3 15 -57 26 -120z m-130 28 c-1 -46 -5 -112 -9 -148 -6 -60 -7 -61 -8 -18
-1 25 -7 48 -12 50 -13 4 9 198 22 198 4 0 7 -37 7 -82z m102 -60 c17 -129 16
-147 -12 -148 -10 0 -19 77 -19 180 -1 116 -2 115 7 107 3 -4 14 -67 24 -139z
m-51 55 c0 -43 3 -108 7 -145 l6 -68 -27 0 c-30 0 -31 3 -19 183 4 80 9 107
20 107 10 0 13 -19 13 -77z m-95 0 c-7 -61 -24 -121 -25 -85 0 23 23 152 27
152 3 0 1 -30 -2 -67z m-40 -15 c-4 -24 -9 -47 -12 -51 -5 -9 -61 23 -63 37
-1 7 66 55 78 56 2 0 1 -19 -3 -42z m665 -145 l-1 -68 -252 -144 c-273 -157
-1308 -754 -1527 -881 -184 -107 -170 -105 -170 -29 l0 64 243 140 c606 349
1091 629 1452 839 138 80 251 145 253 145 1 1 2 -29 2 -66z m-620 -82 l0 -99
-182 -105 c-101 -58 -293 -168 -427 -246 -134 -78 -246 -141 -248 -141 -1 0
-3 44 -3 98 l0 97 428 247 c235 136 428 248 430 248 1 0 2 -45 2 -99z m568
-618 l-3 -577 -75 -44 c-85 -50 -1262 -730 -1589 -919 -118 -68 -218 -123
-223 -123 -4 0 -7 259 -6 576 l3 576 255 147 c140 82 446 258 680 393 234 135
542 314 685 397 143 82 263 150 268 151 4 0 6 -260 5 -577z m-2479 277 l211
-122 0 -94 c0 -52 -4 -94 -9 -94 -5 0 -116 61 -245 136 l-236 137 0 99 0 100
34 -20 c19 -11 129 -75 245 -142z m681 85 c0 -53 -1 -55 -34 -69 -27 -11 -37
-23 -45 -53 -6 -21 -11 -46 -11 -55 0 -11 -59 -50 -176 -117 -97 -56 -178
-101 -180 -101 -2 0 -4 44 -4 98 l1 97 221 128 c122 70 224 127 225 127 2 0 3
-25 3 -55z m263 -87 l87 -49 0 -100 c0 -55 -3 -98 -7 -96 -5 2 -56 32 -115 66
l-107 62 -11 53 c-12 58 -31 82 -69 88 -22 3 -24 8 -23 56 0 28 1 54 1 57 1 2
36 -17 79 -42 42 -25 116 -68 165 -95z m-194 -13 c33 -32 -45 -68 -96 -43 -35
16 -36 38 -3 55 29 15 78 9 99 -12z m-501 -437 l312 -180 0 -64 c0 -35 -2 -64
-4 -64 -3 0 -161 90 -353 201 -191 111 -412 238 -490 283 l-143 81 0 67 0 67
183 -105 c100 -59 323 -187 495 -286z m541 260 c24 -132 24 -138 13 -138 -5 0
-14 44 -21 98 -7 53 -15 113 -18 132 -3 19 -3 33 0 30 3 -3 15 -58 26 -122z
m-132 5 c-4 -58 -7 -123 -7 -144 0 -32 -3 -36 -20 -32 -24 6 -24 5 -3 159 20
155 39 166 30 17z m47 85 c3 -13 7 -78 9 -145 l4 -123 -23 0 c-22 0 -24 4 -24
53 0 95 13 237 21 237 5 0 11 -10 13 -22z m37 20 c0 -2 9 -61 18 -133 17 -119
17 -131 3 -143 -14 -10 -17 -9 -23 5 -10 27 -16 273 -7 273 4 0 8 -1 9 -2z
m-130 -100 c-20 -147 -23 -160 -31 -151 -8 8 30 247 38 238 2 -2 -1 -41 -7
-87z m-474 -360 l422 -243 1 -577 c0 -318 -3 -578 -6 -578 -3 0 -99 53 -212
119 -535 307 -678 390 -695 403 -17 12 -18 48 -17 583 0 314 0 574 0 578 0 5
19 -3 43 -17 23 -14 232 -135 464 -268z m2381 -323 c-2 -1 -151 -88 -333 -192
-181 -105 -460 -266 -620 -358 -159 -92 -438 -253 -620 -357 -181 -105 -339
-196 -351 -203 -19 -12 -43 -1 -250 119 -126 73 -349 202 -496 286 -187 108
-264 158 -256 165 7 7 12 6 15 -2 5 -14 36 -33 571 -342 211 -121 388 -221
394 -221 6 0 119 63 252 139 1050 604 1653 955 1665 966 8 8 18 12 23 9 5 -4
8 -7 6 -9z m8 -140 c-2 -7 -24 -23 -48 -37 -24 -13 -322 -186 -663 -383 -1100
-635 -1205 -696 -1220 -702 -12 -4 -15 7 -15 58 l0 64 477 275 c262 151 700
404 972 561 l496 287 3 -55 c2 -31 1 -61 -2 -68z m-2438 -724 l472 -273 0 -65
c0 -35 -4 -63 -9 -61 -5 2 -227 129 -495 283 l-485 280 -1 69 0 68 23 -14 c12
-8 235 -137 495 -287z"/>
<path d="M3048 2778 c-74 -44 -86 -70 -43 -90 21 -9 33 -5 94 31 39 23 73 46
77 53 8 12 -30 48 -50 48 -6 -1 -41 -19 -78 -42z m92 15 c0 -12 -121 -75 -128
-67 -4 3 -2 8 3 11 6 2 30 17 55 33 45 29 70 37 70 23z"/>
<path d="M1289 1821 c-21 -17 -22 -23 -12 -40 8 -13 9 -22 3 -26 -18 -11 -10
-34 17 -49 24 -12 30 -12 51 2 21 14 26 14 51 -1 25 -15 30 -15 49 -1 23 16
30 54 10 54 -9 0 -9 3 0 12 19 19 14 44 -12 57 -20 11 -28 10 -49 -4 -24 -15
-28 -15 -49 -1 -28 20 -31 20 -59 -3z m56 -17 c21 -14 26 -14 54 0 17 9 32 12
36 7 3 -5 -4 -12 -15 -16 -26 -8 -25 -21 1 -35 31 -17 14 -25 -21 -10 -25 10
-36 10 -55 0 -31 -17 -45 -5 -19 15 18 14 18 16 2 26 -10 5 -18 14 -18 19 0
14 7 12 35 -6z"/>
<path d="M2450 2012 c-322 -186 -643 -372 -715 -414 l-130 -75 -3 -423 c-2
-400 -1 -422 15 -416 17 7 401 226 718 411 77 45 272 157 433 250 l292 168 0
418 c0 329 -3 419 -12 419 -7 0 -276 -152 -598 -338z m590 -85 l0 -403 -705
-407 c-388 -224 -707 -407 -710 -407 -3 0 -4 181 -3 401 l3 402 285 164 c157
91 431 250 610 353 179 103 368 212 420 243 52 31 96 56 98 56 1 1 2 -180 2
-402z"/>
<path d="M1830 1574 c-56 -33 -77 -51 -82 -72 -17 -71 -60 -363 -54 -369 3 -4
36 22 71 57 36 36 65 61 65 58 0 -4 -29 -91 -65 -194 -59 -171 -70 -215 -46
-188 14 16 262 587 258 597 -1 5 -40 -25 -85 -68 -45 -42 -82 -75 -82 -72 0 2
24 68 54 146 30 77 51 143 48 145 -4 2 -41 -16 -82 -40z m1 -140 c-27 -71 -53
-137 -56 -146 -15 -37 22 -16 93 55 83 81 82 90 2 -96 -24 -54 -44 -96 -47
-94 -2 2 8 37 23 77 14 39 23 75 19 78 -3 3 -40 -28 -81 -69 -70 -68 -75 -72
-70 -44 3 17 17 95 31 174 14 79 27 146 30 149 15 15 100 59 103 53 1 -4 -20
-66 -47 -137z"/>
</g>
</svg>
