<?xml version="1.0" encoding="iso-8859-1"?>
<!-- Uploaded to: SVG Repo, www.svgrepo.com, Generator: SVG Repo Mixer Tools -->
<!DOCTYPE svg PUBLIC "-//W3C//DTD SVG 1.1//EN" "http://www.w3.org/Graphics/SVG/1.1/DTD/svg11.dtd">
<svg version="1.1" id="Capa_1" xmlns="http://www.w3.org/2000/svg" xmlns:xlink="http://www.w3.org/1999/xlink" 
	 width="800px" height="800px" viewBox="0 0 284.711 284.711"
	 xml:space="preserve">
<g>
	<g>
		<path style="fill:#030303;" d="M245.921,49.037V21.225H188.1v27.812h-82.705V21.225h-57.82v27.812H0v214.449h284.711V49.037
			H245.921z M199.805,32.936h34.399v12.688h-34.399V32.936z M59.279,32.936h34.399v12.688H59.279V32.936z M272.995,251.781H11.711
			V60.748h261.29v191.033H272.995z"/>
		<rect x="193.949" y="117.11" style="fill:#030303;" width="46.11" height="11.71"/>
		<polygon style="fill:#030303;" points="70.626,146.015 82.337,146.015 82.337,128.821 99.539,128.821 99.539,117.11 
			82.337,117.11 82.337,99.908 70.626,99.908 70.626,117.11 53.424,117.11 53.424,128.821 70.626,128.821 		"/>
	</g>
</g>
</svg>