<?xml version="1.0" standalone="no"?>
<!DOCTYPE svg PUBLIC "-//W3C//DTD SVG 20010904//EN"
 "http://www.w3.org/TR/2001/REC-SVG-20010904/DTD/svg10.dtd">
<svg version="1.0" xmlns="http://www.w3.org/2000/svg"
 width="956.000000pt" height="958.000000pt" viewBox="0 0 956.000000 958.000000"
 preserveAspectRatio="xMidYMid meet">

<g transform="translate(0.000000,958.000000) scale(0.100000,-0.100000)"
fill="#000000" stroke="none">
<path d="M4008 9338 c-38 -30 -333 -572 -517 -950 -360 -738 -701 -1662 -856
-2318 -10 -41 -20 -78 -24 -82 -3 -4 -51 -14 -105 -22 -75 -11 -102 -20 -110
-33 -6 -10 -122 -300 -258 -644 l-248 -626 0 -1007 c-1 -787 2 -1011 11 -1023
7 -8 43 -30 81 -49 l68 -34 0 -374 c0 -287 3 -376 13 -383 27 -22 2648 -1443
2661 -1443 7 0 147 77 309 171 280 161 297 172 308 207 35 110 160 318 249
415 l50 54 87 -14 c222 -35 446 -113 704 -244 88 -45 165 -79 171 -76 24 9
763 449 776 461 10 9 16 76 22 242 28 697 70 1078 196 1784 l17 95 -71 365
c-290 1480 -447 2551 -542 3695 -17 204 -24 253 -38 267 -9 9 -143 85 -297
168 -154 84 -356 194 -450 245 -1847 1006 -2145 1165 -2179 1165 -7 0 -19 -6
-28 -12z m175 -171 c56 -30 332 -179 612 -332 281 -152 832 -452 1226 -666
l715 -389 13 -198 c98 -1553 261 -2842 504 -3994 33 -152 33 -157 13 -146 -64
34 -702 382 -706 385 -9 8 89 279 181 501 l87 213 -33 252 c-109 810 -233
2074 -271 2742 -4 66 -10 126 -13 133 -4 7 -540 302 -1191 657 -921 501 -1187
642 -1196 632 -22 -22 -206 -370 -333 -627 -371 -750 -680 -1574 -876 -2335
-20 -77 -38 -145 -40 -152 -3 -8 -32 4 -85 34 -44 25 -80 47 -80 50 0 14 79
315 125 472 190 659 453 1331 774 1986 196 399 435 835 459 835 6 0 58 -24
115 -53z m14 -262 c23 -14 43 -27 43 -29 0 -2 -33 -57 -74 -123 -340 -549
-698 -1443 -1037 -2592 -49 -168 -93 -309 -97 -312 -4 -4 -36 -10 -71 -14 -58
-7 -63 -6 -58 11 3 11 17 64 32 119 213 807 527 1647 892 2380 108 217 307
585 317 585 5 0 29 -11 53 -25z m311 -169 c251 -137 1449 -789 1775 -966 169
-92 207 -116 207 -134 0 -39 40 -567 66 -871 58 -688 126 -1317 210 -1957 l35
-266 -59 -139 c-33 -76 -88 -215 -122 -308 -35 -94 -64 -172 -66 -174 -4 -4
33 -25 -1354 741 -663 366 -1411 779 -1664 919 -252 139 -460 258 -463 265 -2
6 25 114 62 240 286 982 620 1868 906 2399 83 153 220 375 232 375 5 0 110
-56 235 -124z m2367 -1039 c2 -7 11 -104 20 -217 84 -1069 262 -2276 545
-3706 33 -165 60 -308 60 -316 0 -11 -21 -18 -86 -27 -48 -7 -90 -9 -94 -4 -4
4 -42 179 -83 388 -189 944 -297 1752 -407 3045 -24 290 -60 797 -60 857 l0
43 50 -25 c28 -14 53 -31 55 -38z m-4084 -1852 c88 -48 100 -51 194 -34 l61
10 749 -414 c413 -227 1193 -658 1735 -957 542 -298 991 -549 999 -556 11 -10
11 -19 3 -43 -10 -28 -8 -33 11 -46 12 -7 179 -99 370 -203 379 -206 364 -193
232 -207 l-60 -6 -1335 726 c-734 400 -1639 892 -2010 1094 -371 203 -791 430
-932 507 -142 76 -258 142 -258 145 0 5 74 19 147 27 7 1 49 -18 94 -43z m224
-273 c248 -134 758 -412 1135 -617 2010 -1093 2915 -1586 2917 -1589 3 -3
-474 -1216 -480 -1223 -2 -1 -500 268 -1108 598 -607 331 -1329 724 -1604 873
-1606 873 -1875 1021 -1875 1028 0 7 468 1197 477 1210 5 10 7 9 538 -280z
m-450 -1277 c1147 -624 1969 -1071 2960 -1610 l1050 -571 3 -562 c1 -309 0
-562 -3 -562 -3 0 -63 29 -133 64 -166 83 -330 147 -474 186 -217 58 -356 74
-394 45 -11 -9 -42 -15 -79 -15 -214 -1 -423 -74 -519 -180 l-35 -39 -543 296
c-299 162 -858 467 -1243 676 -1076 585 -999 542 -1005 568 -4 17 -28 37 -83
68 l-77 43 0 522 c0 286 3 713 7 948 l6 427 31 -16 c17 -9 256 -138 531 -288z
m4931 -909 c-14 -58 -77 -427 -100 -591 -51 -366 -79 -690 -98 -1117 l-12
-288 -337 -200 c-185 -110 -338 -200 -340 -200 -2 0 -3 255 -1 566 l2 566 241
611 c133 337 244 615 248 620 8 8 313 54 370 56 30 1 33 -1 27 -23z m-4326
-1403 c1727 -939 1850 -1006 1850 -1012 0 -3 -22 -24 -49 -46 -105 -88 -178
-203 -226 -360 -16 -50 -29 -91 -30 -92 -1 -2 -870 469 -2217 1202 l-348 189
0 334 c0 314 1 334 18 328 9 -4 460 -248 1002 -543z m2301 -815 c-72 -88 -143
-204 -196 -320 l-40 -87 -240 -139 c-132 -77 -241 -138 -242 -138 -6 4 30 120
52 171 52 117 137 223 227 282 21 14 38 29 38 33 0 5 -21 20 -47 36 -27 15
-50 29 -52 31 -3 2 9 17 25 34 92 98 275 165 462 168 l72 1 -59 -72z"/>
<path d="M5860 3583 c-37 -14 -68 -59 -147 -218 -47 -93 -90 -183 -94 -199
-12 -41 5 -96 38 -128 16 -15 191 -106 391 -203 477 -233 442 -237 589 59 86
173 94 195 90 235 -9 85 11 72 -512 329 -266 130 -304 143 -355 125z m21 -72
c-48 -49 -121 -174 -121 -207 0 -9 8 -26 17 -36 16 -17 15 -22 -16 -87 -27
-54 -33 -77 -30 -114 2 -26 1 -47 -4 -47 -4 0 -23 15 -42 33 -63 57 -60 76 43
283 94 188 121 224 173 224 l28 0 -48 -49z m432 -132 c209 -102 342 -172 360
-190 39 -42 35 -80 -18 -195 -25 -54 -47 -99 -49 -101 -1 -2 -186 87 -409 197
-287 141 -407 204 -407 216 0 53 136 234 175 234 9 0 165 -73 348 -161z m-107
-325 c208 -102 380 -187 382 -189 2 -2 -13 -35 -32 -74 -38 -74 -70 -101 -121
-101 -14 0 -123 48 -243 106 -119 58 -259 126 -310 151 -102 49 -125 74 -125
131 0 31 54 162 67 162 1 0 174 -84 382 -186z"/>
</g>
</svg>
