<?xml version="1.0" standalone="no"?>
<!DOCTYPE svg PUBLIC "-//W3C//DTD SVG 20010904//EN"
 "http://www.w3.org/TR/2001/REC-SVG-20010904/DTD/svg10.dtd">
<svg version="1.0" xmlns="http://www.w3.org/2000/svg"
 width="225.000000pt" height="225.000000pt" viewBox="0 0 225.000000 225.000000"
 preserveAspectRatio="xMidYMid meet">

<g transform="translate(0.000000,225.000000) scale(0.100000,-0.100000)"
fill="#000000" stroke="none">
<path d="M1123 1973 c9 -2 23 -2 30 0 6 3 -1 5 -18 5 -16 0 -22 -2 -12 -5z"/>
<path d="M1008 1963 c6 -2 18 -2 25 0 6 3 1 5 -13 5 -14 0 -19 -2 -12 -5z"/>
<path d="M1233 1963 c9 -2 23 -2 30 0 6 3 -1 5 -18 5 -16 0 -22 -2 -12 -5z"/>
<path d="M1012 1948 c-50 -8 -65 -14 -72 -31 -5 -12 -29 -143 -54 -292 -25
-148 -51 -303 -58 -343 -9 -53 -9 -78 -1 -90 12 -19 15 -19 138 -4 114 15 234
14 355 -2 99 -13 115 -12 123 8 7 17 -116 723 -128 735 -13 13 -128 31 -190
30 -27 -1 -78 -6 -113 -11z m35 -163 c-3 -63 -2 -115 3 -115 12 0 20 56 20
146 0 77 2 84 20 84 19 0 20 -7 20 -115 0 -70 4 -115 10 -115 6 0 10 45 10
115 0 106 1 115 19 115 25 0 31 -26 31 -137 0 -73 3 -93 14 -93 10 0 13 10 10
38 -9 99 -12 192 -4 192 5 0 11 -35 15 -77 3 -43 10 -96 15 -118 10 -44 10
-44 -6 130 -10 110 5 70 21 -56 l14 -114 -5 90 c-3 50 -8 100 -11 113 -4 17
-1 22 15 22 29 0 38 -17 52 -95 6 -38 14 -77 16 -86 3 -10 -8 -21 -32 -33 -20
-9 -34 -20 -30 -23 3 -4 12 -1 18 5 17 17 45 15 52 -4 4 -9 5 -17 4 -18 -2 -1
-12 -6 -23 -12 -44 -24 -115 -224 -115 -326 l0 -48 -65 0 -65 0 0 52 c0 104
-72 303 -117 323 -29 12 -31 45 -2 45 11 0 30 -5 42 -12 19 -9 20 -9 11 3 -8
10 -9 36 -3 84 4 39 8 86 7 105 0 19 -6 -9 -12 -62 -6 -53 -14 -99 -17 -103
-10 -10 -39 6 -39 22 0 34 24 159 32 170 5 6 24 14 41 16 18 2 34 5 36 5 2 1
1 -50 -2 -113z m-63 -290 c31 -66 49 -149 44 -205 l-3 -45 -73 -9 c-46 -5 -78
-4 -84 2 -8 8 32 288 49 342 6 20 37 -18 67 -85z m366 78 c0 -4 12 -79 27
-166 17 -104 23 -161 16 -168 -6 -6 -38 -7 -83 -3 l-73 7 6 76 c5 83 34 175
69 228 22 31 38 42 38 26z"/>
<path d="M1027 1873 c-2 -5 -7 -53 -10 -108 -7 -120 0 -107 11 23 8 90 8 100
-1 85z"/>
<path d="M1060 1567 c0 -1 9 -29 20 -61 12 -31 24 -90 28 -129 6 -63 10 -72
28 -75 19 -3 22 3 27 70 3 40 15 100 26 132 12 33 20 61 18 63 -9 8 -57 -107
-63 -152 l-7 -50 -13 61 c-11 56 -48 144 -59 144 -3 0 -5 -1 -5 -3z"/>
<path d="M900 1929 c-22 -18 -22 -19 -3 -10 12 6 25 16 28 21 9 15 3 12 -25
-11z"/>
<path d="M1344 1934 c9 -8 16 -25 16 -37 0 -17 2 -19 9 -8 12 19 15 8 75 -289
45 -224 53 -255 63 -234 9 20 8 32 -3 60 -17 40 -56 202 -77 317 l-15 77 33
-20 c18 -11 36 -20 41 -20 4 0 -13 13 -38 29 -31 20 -47 37 -51 58 -6 31 -43
83 -58 83 -6 0 -3 -7 5 -16z"/>
<path d="M866 1885 c-3 -9 -6 -22 -5 -28 0 -7 5 -1 10 12 5 13 8 26 5 28 -2 2
-6 -3 -10 -12z"/>
<path d="M892 1880 c0 -14 2 -19 5 -12 2 6 2 18 0 25 -3 6 -5 1 -5 -13z"/>
<path d="M1372 1840 c0 -14 2 -19 5 -12 2 6 2 18 0 25 -3 6 -5 1 -5 -13z"/>
<path d="M882 1825 c0 -16 2 -22 5 -12 2 9 2 23 0 30 -3 6 -5 -1 -5 -18z"/>
<path d="M850 1831 c0 -7 -4 -10 -9 -7 -4 3 -17 -1 -27 -9 -16 -13 -17 -14 -1
-9 13 5 17 1 17 -15 0 -37 -51 -264 -76 -340 -22 -65 -23 -76 -10 -83 11 -6
14 -19 11 -41 -13 -84 9 12 55 246 29 142 49 261 46 264 -3 4 -6 1 -6 -6z"/>
<path d="M736 1797 c3 -10 9 -15 12 -12 3 3 0 11 -7 18 -10 9 -11 8 -5 -6z"/>
<path d="M1505 1799 c-4 -6 -5 -12 -2 -15 2 -3 7 2 10 11 7 17 1 20 -8 4z"/>
<path d="M681 1769 c-33 -33 -33 -43 -2 -52 12 -3 27 3 38 16 12 14 13 17 3
12 -21 -13 -50 -16 -50 -6 0 4 9 16 19 25 15 13 20 14 24 4 3 -7 4 -3 4 10 -1
12 -2 22 -3 22 -2 0 -16 -14 -33 -31z"/>
<path d="M774 1792 c-11 -7 -38 -52 -31 -52 2 0 13 14 25 30 24 31 24 35 6 22z"/>
<path d="M1382 1780 c0 -14 2 -19 5 -12 2 6 2 18 0 25 -3 6 -5 1 -5 -13z"/>
<path d="M1554 1772 c29 -31 31 -57 3 -34 -8 7 -18 8 -22 4 -5 -4 -6 0 -3 9 4
9 1 16 -8 16 -14 0 -10 -11 13 -39 8 -9 22 -14 31 -11 10 4 13 2 8 -5 -3 -6 2
-15 12 -21 10 -5 23 -26 29 -45 l11 -35 -29 21 c-16 12 -29 24 -29 27 0 4 -9
12 -20 18 -16 11 -18 10 -14 -2 4 -8 2 -15 -4 -15 -14 0 -75 71 -67 78 3 3 17
-7 31 -23 l26 -30 -21 32 c-12 17 -21 36 -21 42 0 6 -9 11 -20 11 -32 0 -24
-33 20 -82 40 -46 40 -68 -1 -68 -26 0 -13 -32 33 -85 22 -25 37 -45 34 -45
-3 0 6 -14 21 -30 14 -17 29 -28 31 -25 3 3 11 0 18 -6 9 -7 12 -6 10 8 -2 11
-11 18 -26 18 -13 0 -25 6 -28 14 -3 9 0 11 8 6 9 -6 9 -3 1 14 -18 32 9 27
42 -7 18 -19 25 -35 21 -45 -3 -10 -1 -24 5 -31 14 -17 -2 -31 -24 -22 -8 3
-15 1 -15 -4 0 -19 -22 -10 -51 22 -32 35 -38 53 -14 44 13 -4 14 -2 5 14 -10
20 -50 28 -50 11 0 -14 51 -85 72 -99 15 -11 17 -17 7 -28 -7 -8 -18 -13 -25
-10 -42 16 -17 -48 43 -108 l38 -39 -32 17 c-55 28 -37 10 25 -24 31 -18 64
-37 73 -44 8 -6 2 1 -15 17 -23 20 -26 27 -13 27 10 0 17 8 17 19 0 10 6 24
14 31 8 6 12 18 9 26 -3 8 -1 14 4 14 5 0 10 -6 10 -12 1 -7 13 -53 27 -103
14 -49 23 -99 20 -110 -5 -21 -95 -105 -112 -105 -5 0 -47 20 -93 44 l-83 44
-32 -27 c-30 -27 -34 -27 -95 -19 -35 4 -170 7 -301 6 -130 -2 -240 0 -243 4
-4 4 9 4 29 1 33 -5 36 -4 30 13 -6 16 -5 17 7 7 19 -18 69 -17 69 2 0 8 5 15
10 15 6 0 10 -7 10 -16 0 -12 9 -14 43 -12 41 3 42 4 45 41 3 36 2 37 -30 37
-18 0 -79 -5 -136 -12 -117 -13 -128 -9 -124 49 3 36 2 37 -17 19 -23 -21 -19
-39 18 -81 14 -16 22 -27 18 -24 -4 4 -49 -15 -98 -42 -50 -27 -95 -49 -102
-49 -17 0 -117 95 -117 112 0 7 9 47 20 88 34 124 29 114 51 94 10 -9 19 -25
19 -36 0 -10 7 -18 17 -18 13 0 10 -7 -13 -27 -17 -16 -23 -22 -13 -15 9 7 45
28 80 47 64 35 76 49 16 19 l-32 -16 37 35 c58 55 87 130 43 113 -8 -3 -19 2
-25 9 -10 12 -9 16 4 21 15 6 76 90 76 106 0 16 -40 7 -50 -12 -9 -16 -8 -18
5 -14 24 10 18 -11 -14 -45 -29 -31 -51 -40 -51 -20 0 5 -5 7 -10 4 -6 -4 -18
-4 -27 -1 -12 5 -13 9 -4 20 10 12 8 13 -10 9 -16 -4 -20 -2 -17 8 3 8 14 13
24 11 18 -3 18 -3 1 10 -17 12 -17 19 -8 56 7 24 18 42 26 42 8 0 17 4 20 10
3 6 -1 7 -9 4 -11 -4 -16 0 -16 11 0 11 5 15 16 11 8 -3 13 -2 10 2 -9 15 25
54 41 48 11 -4 13 -2 10 9 -8 19 13 31 24 14 12 -19 11 -32 -1 -24 -5 3 -7 0
-4 -9 4 -11 0 -14 -15 -11 -20 4 -34 -8 -37 -33 -2 -10 2 -10 15 2 10 9 20 14
23 10 3 -3 15 7 27 22 18 23 21 24 21 7 0 -10 -18 -36 -39 -57 -30 -29 -45
-37 -62 -33 -16 4 -19 3 -11 -5 8 -8 4 -16 -14 -30 -13 -11 -24 -25 -24 -31 0
-6 15 3 33 21 39 38 64 44 46 11 -8 -17 -8 -20 1 -14 8 5 11 3 8 -6 -3 -8 -10
-15 -16 -15 -7 -1 -15 -3 -19 -4 -5 -1 -11 -2 -14 -2 -3 1 -6 -6 -6 -13 0 -10
4 -12 12 -5 7 5 14 8 17 5 2 -3 17 8 31 25 15 16 24 30 21 30 -3 0 13 21 35
46 41 46 53 84 28 84 -7 0 -18 5 -25 12 -8 8 -1 22 28 56 44 49 52 82 20 82
-11 0 -20 -6 -20 -13 0 -7 -13 -26 -28 -42 -27 -28 -43 -43 -100 -88 l-22 -19
10 28 c6 15 8 29 6 31 -3 3 -15 -27 -26 -66 -13 -43 -31 -78 -44 -87 -15 -12
-16 -15 -3 -10 27 9 11 -43 -22 -72 -15 -13 -19 -20 -8 -16 33 12 16 -59 -19
-75 -13 -6 -24 -16 -24 -22 0 -8 5 -8 15 1 23 19 25 10 12 -43 -9 -36 -20 -52
-45 -67 -17 -11 -32 -25 -32 -31 0 -6 7 -3 16 5 26 26 35 19 28 -21 -11 -62
-22 -83 -49 -93 -34 -13 -32 -27 15 -91 42 -55 64 -68 115 -64 17 1 47 3 67 3
26 2 38 7 41 20 3 12 5 13 6 2 1 -25 -15 -42 -42 -42 -25 0 -25 -1 8 -29 25
-22 31 -35 29 -56 -3 -27 -3 -27 4 -3 l8 24 22 -31 c35 -50 30 -99 -19 -164
-22 -30 -45 -53 -50 -52 -5 2 -9 -19 -9 -45 0 -47 2 -50 83 -129 81 -80 134
-115 192 -127 44 -9 394 -10 435 -1 62 14 124 52 192 118 92 91 99 103 91 162
-4 32 -8 43 -13 31 -5 -14 -14 -6 -48 42 -49 71 -55 116 -20 163 20 26 23 28
30 12 5 -14 7 -12 7 9 1 16 12 36 32 52 22 19 26 26 14 26 -10 0 -40 -25 -69
-56 -44 -48 -52 -63 -57 -107 l-6 -52 -1 52 c-2 48 1 55 46 104 26 29 46 55
45 58 -1 3 -5 15 -8 26 -5 14 -4 16 3 7 10 -15 118 -21 162 -9 25 7 100 100
100 124 0 8 -11 18 -24 23 -24 9 -31 21 -40 70 -2 14 -8 33 -12 44 -6 16 -4
17 17 12 23 -7 23 -6 5 8 -11 9 -23 16 -27 16 -4 0 -12 23 -18 50 -14 65 -14
65 4 50 11 -9 15 -9 15 -1 0 6 -11 17 -25 23 -14 6 -25 19 -25 29 0 9 -3 25
-7 35 -5 14 -3 16 12 10 13 -5 11 1 -8 18 -15 14 -28 34 -28 46 -2 24 -3 28
-13 58 -10 30 -1 39 21 21 16 -13 17 -12 4 4 -7 9 -19 17 -25 17 -6 0 -21 28
-34 63 -31 86 -55 129 -83 146 -21 13 -20 11 5 -17z m-773 -49 c-13 -24 -60
-68 -66 -61 -6 6 56 78 68 78 4 0 3 -8 -2 -17z m819 -13 c0 -5 -5 -10 -11 -10
-5 0 -7 5 -4 10 3 6 8 10 11 10 2 0 4 -4 4 -10z m-38 -73 c-2 -11 2 -15 11
-11 15 5 54 -32 44 -43 -4 -3 -15 1 -24 9 -10 9 -26 14 -36 13 -13 -3 -17 1
-13 11 3 9 1 12 -4 9 -12 -7 -12 -3 -4 20 8 20 30 13 26 -8z m-5 -50 c-10 16
20 10 36 -7 9 -11 8 -11 -8 0 -18 14 -19 14 -7 -2 8 -10 20 -14 29 -11 11 4
14 3 9 -6 -5 -8 -1 -14 12 -17 12 -4 24 -20 31 -43 15 -52 15 -52 -18 -22 -20
18 -26 30 -19 38 7 8 3 10 -12 6 -12 -3 -29 2 -43 13 -19 17 -20 17 -8 1 28
-36 -2 -31 -36 6 -37 41 -38 63 -1 31 23 -19 23 -19 6 2 -29 33 -22 51 9 23
14 -13 23 -19 20 -12z m-806 -14 c-14 -27 -60 -67 -68 -60 -4 4 9 23 27 42 36
37 57 46 41 18z m889 -8 c0 -8 -4 -15 -10 -15 -5 0 -7 7 -4 15 4 8 8 15 10 15
2 0 4 -7 4 -15z m50 -176 c6 -22 14 -48 17 -57 6 -16 5 -15 -14 1 -11 9 -28
17 -39 16 -17 0 -17 -1 3 -9 12 -5 27 -18 33 -29 13 -25 3 -27 -22 -4 -18 16
-58 30 -43 15 4 -4 12 -7 18 -7 6 0 17 -10 23 -23 6 -12 19 -28 29 -35 15 -12
15 -14 2 -26 -20 -16 -44 -4 -86 44 -17 20 -31 32 -31 28 0 -4 19 -27 42 -50
28 -28 37 -43 26 -43 -9 0 -32 18 -51 39 -35 39 -36 40 -20 71 9 19 21 29 29
26 9 -3 11 0 7 11 -5 12 -2 15 13 11 13 -3 26 3 37 19 17 22 17 23 0 24 -11 0
-13 3 -5 6 6 2 9 10 6 15 -4 7 -2 8 4 4 6 -4 16 -25 22 -47z m-1100 -4 c7 -9
11 -16 9 -18 -2 -1 -16 -13 -31 -25 l-26 -24 10 41 c11 44 19 49 38 26z m50
-21 c0 -14 -22 -44 -29 -40 -5 3 -16 -3 -26 -14 -10 -11 -22 -20 -27 -20 -16
0 13 41 35 50 12 5 18 9 14 9 -5 1 -5 6 -2 11 7 11 35 14 35 4z m24 -42 c0
-11 3 -20 7 -19 7 2 9 -3 9 -22 0 -14 -63 -71 -79 -71 -10 0 -1 15 24 42 l40
42 -43 -37 c-23 -20 -46 -37 -51 -37 -14 0 -32 26 -23 34 4 4 3 6 -3 4 -10 -3
-15 4 -15 22 0 5 7 7 16 3 8 -3 25 4 38 16 12 12 25 18 29 15 3 -3 12 4 19 15
16 26 33 22 32 -7z m549 -349 c-51 -2 -136 -2 -190 0 -54 1 -12 3 92 3 105 0
149 -2 98 -3z m-455 -41 c35 -36 51 -69 39 -81 -6 -6 -17 -11 -23 -11 -15 0
-84 82 -84 99 0 17 48 13 68 -7z m175 -4 c-20 -20 -24 -20 -40 -6 -10 8 -25
18 -33 21 -8 3 10 6 40 6 l54 1 -21 -22z m161 6 c12 -5 8 -12 -20 -30 -41 -28
-44 -29 -44 -10 0 8 10 22 22 30 26 18 22 18 42 10z m188 -1 c-24 -3 -38 -13
-51 -34 l-18 -30 -15 23 c-8 13 -18 29 -22 36 -5 9 10 12 66 10 40 0 58 -3 40
-5z m148 -35 c0 -4 15 1 33 11 31 18 97 27 97 13 0 -3 -18 -25 -41 -48 l-41
-41 -23 23 c-12 12 -39 26 -59 30 -35 6 -36 7 -20 25 13 15 20 16 35 6 10 -6
19 -15 19 -19z m-439 12 c23 -13 25 -52 4 -70 -12 -10 -21 -10 -40 -2 -34 16
-34 -6 0 -38 30 -28 31 -37 8 -64 -18 -21 -18 -21 5 -2 12 11 22 14 22 8 0
-17 -51 -72 -67 -72 -13 0 -13 3 -3 15 7 8 9 15 5 15 -4 0 -1 8 6 17 8 9 9 14
3 10 -16 -9 -48 29 -38 45 4 7 9 19 10 28 6 41 46 120 61 120 2 0 13 -5 24
-10z m184 -15 c14 -13 25 -36 25 -50 0 -14 -11 -37 -25 -50 l-24 -25 24 0 c25
0 105 -67 105 -89 0 -7 -4 -10 -10 -6 -5 3 -3 -7 5 -22 8 -15 16 -44 16 -63 2
-30 3 -31 6 -7 2 15 7 27 9 27 3 0 20 -11 39 -26 l33 -25 -35 -35 c-32 -33
-35 -40 -30 -80 2 -24 1 -44 -4 -44 -9 0 -20 52 -22 105 l-1 36 -14 -28 c-8
-15 -22 -37 -31 -48 -15 -18 -15 -19 2 -6 15 12 17 11 17 -7 0 -11 3 -27 6
-36 5 -13 -1 -16 -30 -16 -38 0 -47 15 -23 39 10 10 7 10 -15 0 -16 -7 -28
-18 -28 -26 0 -8 -13 -13 -37 -13 -25 0 -33 3 -25 9 10 6 7 10 -12 13 -18 4
-26 1 -26 -8 0 -9 -12 -14 -34 -14 -30 0 -33 2 -28 25 5 26 16 32 27 15 3 -6
12 -10 18 -10 7 0 -1 9 -17 19 -15 10 -36 30 -45 44 -16 25 -16 25 -16 -31 0
-55 -1 -57 -28 -57 -15 -1 -35 -9 -44 -18 -19 -19 -26 -17 122 -21 42 -1 50
-4 47 -18 -3 -16 9 -23 31 -19 5 1 6 -2 4 -6 -3 -5 10 -8 28 -8 19 0 31 4 28
11 -2 6 -16 9 -30 6 -21 -4 -25 -2 -20 11 4 12 2 14 -11 10 -13 -5 -14 -3 -6
6 6 7 27 11 45 9 29 -3 34 -6 31 -25 -2 -16 2 -23 13 -23 11 0 15 7 13 23 -3
20 1 22 37 22 35 0 40 -3 37 -21 -3 -19 1 -21 30 -18 45 4 136 38 151 55 10
12 10 12 -3 2 -7 -7 -29 -13 -48 -13 -18 0 -31 -4 -28 -9 7 -10 -30 -21 -57
-17 -31 4 -23 21 11 24 l32 3 -20 26 c-23 30 -26 85 -6 103 13 10 13 7 3 -19
-24 -64 27 -117 90 -95 36 12 51 54 36 95 -10 26 -10 29 3 19 17 -15 19 -81 2
-100 -30 -35 13 10 62 65 54 59 54 59 7 15 -57 -54 -62 -44 -7 16 22 24 40 49
40 56 0 8 -14 30 -31 51 -17 20 -26 37 -21 37 16 0 62 -67 63 -92 0 -22 1 -22
9 -3 7 17 9 16 9 -10 1 -25 -13 -44 -76 -107 -122 -120 -127 -121 -382 -124
-270 -3 -285 1 -408 119 -70 67 -83 85 -83 111 l1 31 13 -30 c8 -16 35 -50 60
-75 l46 -44 0 28 c0 15 5 36 10 47 6 11 7 19 1 19 -11 0 -21 -25 -21 -53 0
-19 -5 -17 -40 18 -30 31 -38 45 -34 63 4 12 11 22 16 22 6 0 7 -8 3 -17 -5
-14 -3 -15 6 -6 12 12 5 33 -12 33 -5 0 -14 -10 -19 -22 -8 -20 -9 -21 -9 -4
-1 11 11 37 25 58 23 32 32 38 63 38 28 0 44 7 66 30 27 28 30 29 47 13 10 -9
18 -22 18 -30 0 -21 15 -16 65 23 26 19 44 31 40 25 -3 -6 14 1 38 17 25 15
43 29 41 31 -1 2 -19 -7 -38 -19 -20 -12 -36 -17 -36 -12 0 13 62 52 83 52 12
0 10 6 -8 25 -28 27 -30 42 -14 79 22 48 78 58 114 21z m126 15 c10 -6 19 -21
19 -33 0 -12 7 -31 15 -41 18 -24 19 -40 3 -30 -8 4 -10 3 -5 -2 5 -5 12 -9
16 -9 4 0 22 -12 40 -27 38 -32 32 -37 -9 -8 -27 19 -28 19 -23 1 6 -24 -47
-46 -68 -28 -8 7 -1 -3 15 -20 30 -33 50 -47 25 -17 -11 13 -9 14 12 9 17 -4
30 -1 38 9 8 9 18 16 24 16 16 0 -25 -41 -51 -51 -29 -11 -53 1 -77 38 -12 18
-14 28 -6 31 6 2 8 8 5 14 -4 6 8 23 25 39 37 32 34 55 -4 37 -19 -8 -28 -8
-40 2 -20 17 -19 57 3 69 21 13 20 13 43 1z m-543 -165 l-1 -50 -4 45 c-4 35
-14 56 -50 100 l-46 55 51 -50 c50 -47 52 -51 50 -100z m126 119 c28 -11 17
-41 -26 -78 -39 -34 -42 -35 -58 -18 -19 19 -15 43 6 35 8 -3 11 -10 7 -16 -3
-6 -1 -7 6 -3 6 4 9 11 6 15 -5 9 34 48 43 43 4 -2 8 2 10 10 3 11 2 11 -6 0
-7 -11 -10 -11 -15 2 -7 17 1 20 27 10z m524 0 c-4 -3 10 -21 30 -39 37 -33
40 -56 5 -36 -13 8 -14 10 -3 11 9 0 5 6 -10 17 -45 32 -56 22 -17 -14 25 -23
36 -38 29 -45 -12 -12 -96 66 -89 84 2 7 10 12 16 11 6 -2 11 2 11 7 0 6 8 10
17 10 9 0 14 -3 11 -6z m-573 -34 c-10 -11 -20 -18 -23 -15 -7 6 18 35 31 35
5 0 2 -9 -8 -20z m586 -17 c13 -16 12 -17 -3 -4 -17 13 -22 21 -14 21 2 0 10
-8 17 -17z m-544 -48 c-15 -14 -33 -25 -39 -25 -6 0 4 11 23 24 44 32 51 32
16 1z m-2 -46 c4 -6 17 -14 29 -19 20 -7 20 -9 3 -15 -13 -6 -26 0 -45 19 -21
20 -23 26 -10 26 9 0 20 -5 23 -11z m629 -112 c31 -41 32 -53 6 -69 -24 -15
-27 -33 -4 -24 15 6 15 4 3 -11 -7 -10 -14 -19 -15 -21 -1 -2 -8 9 -16 24 -7
15 -17 26 -23 25 -10 -2 -10 -17 1 -64 13 -57 -67 -93 -100 -45 -23 32 -20 54
12 79 24 19 25 21 5 15 -18 -6 -22 -4 -17 8 8 21 54 33 64 16 5 -8 10 -8 14
-2 6 9 -13 22 -43 28 -8 1 -24 13 -35 26 -12 13 -19 19 -16 13 3 -6 -2 -3 -11
7 -9 9 -20 14 -24 10 -5 -4 -5 -1 -1 6 5 8 34 12 91 12 83 0 84 0 109 -33z"/>
<path d="M1590 1333 c0 -13 37 -46 56 -49 8 -1 12 2 8 7 -3 5 -9 7 -14 4 -5
-3 -18 7 -29 21 -12 15 -21 22 -21 17z"/>
<path d="M637 1314 c-10 -14 -23 -21 -29 -18 -7 5 -8 2 -3 -5 5 -10 14 -6 33
13 14 14 24 27 21 30 -2 2 -12 -7 -22 -20z"/>
<path d="M947 886 c-4 -9 -2 -16 4 -16 6 0 8 -4 5 -8 -3 -5 5 -8 17 -7 14 1
22 8 22 21 0 24 -40 32 -48 10z"/>
<path d="M1083 858 c-1 -15 1 -27 5 -26 4 1 15 -2 25 -7 21 -9 56 19 54 44 -1
13 -11 17 -41 17 -38 0 -41 -3 -43 -28z"/>
<path d="M1149 813 c-13 -16 -12 -17 4 -4 9 7 17 15 17 17 0 8 -8 3 -21 -13z"/>
<path d="M1086 812 c-3 -4 4 -9 15 -9 23 -2 25 3 4 10 -8 4 -16 3 -19 -1z"/>
<path d="M1115 760 c-3 -5 1 -10 10 -10 9 0 13 5 10 10 -3 6 -8 10 -10 10 -2
0 -7 -4 -10 -10z"/>
<path d="M1171 746 c2 -2 15 -9 29 -15 24 -11 24 -11 6 3 -16 13 -49 24 -35
12z"/>
<path d="M1118 723 c7 -3 16 -2 19 1 4 3 -2 6 -13 5 -11 0 -14 -3 -6 -6z"/>
<path d="M1034 688 c-59 -55 -63 -142 -8 -199 75 -78 203 -46 235 59 10 35 9
48 -6 88 -17 45 -62 84 -95 84 -8 -1 -1 -7 15 -14 42 -18 65 -57 65 -110 0
-83 -86 -138 -162 -102 -87 42 -91 167 -6 209 20 10 26 17 15 17 -9 0 -33 -15
-53 -32z"/>
<path d="M1230 716 c0 -2 8 -10 18 -17 15 -13 16 -12 3 4 -13 16 -21 21 -21
13z"/>
<path d="M1110 680 c0 -5 7 -10 16 -10 8 0 12 5 9 10 -3 6 -10 10 -16 10 -5 0
-9 -4 -9 -10z"/>
<path d="M945 649 c-38 -34 -39 -54 -1 -36 19 9 54 67 40 67 -2 0 -19 -14 -39
-31z m14 -12 c-2 -1 -13 -9 -24 -17 -19 -14 -19 -14 -6 3 7 9 18 17 24 17 6 0
8 -1 6 -3z"/>
<path d="M833 644 c-8 -21 13 -42 28 -27 13 13 5 43 -11 43 -6 0 -13 -7 -17
-16z m27 -4 c0 -5 -4 -10 -10 -10 -5 0 -10 5 -10 10 0 6 5 10 10 10 6 0 10 -4
10 -10z"/>
<path d="M1103 614 c-7 -20 11 -38 31 -31 17 7 21 32 7 41 -5 4 -7 -3 -4 -14
4 -14 0 -20 -12 -20 -12 0 -16 6 -12 20 6 24 -1 27 -10 4z"/>
<path d="M877 595 c-11 -8 -32 -11 -52 -8 -27 4 -39 0 -59 -20 -36 -36 -32
-54 5 -23 32 27 58 33 75 16 6 -6 20 -1 38 14 31 24 24 44 -7 21z"/>
<path d="M801 541 c-16 -12 -20 -21 -12 -25 8 -5 8 -13 0 -28 -6 -11 -9 -36
-6 -55 4 -24 3 -32 -6 -27 -7 4 -3 -2 7 -14 19 -22 32 -30 22 -13 -4 5 11 7
33 4 55 -7 85 23 78 78 -3 22 -1 37 4 33 5 -3 10 -22 11 -42 1 -36 1 -36 5 -5
4 34 -22 97 -37 88 -5 -3 -6 -15 -3 -28 2 -12 7 -32 10 -45 13 -53 -70 -85
-101 -40 -22 30 -20 47 6 75 18 19 19 23 5 17 -13 -5 -16 -2 -11 10 4 10 12
15 19 13 6 -3 12 1 12 9 0 18 -7 17 -36 -5z"/>
<path d="M1060 550 c0 -5 5 -10 10 -10 6 0 10 5 10 10 0 6 -4 10 -10 10 -5 0
-10 -4 -10 -10z"/>
<path d="M1180 550 c0 -5 5 -10 10 -10 6 0 10 5 10 10 0 6 -4 10 -10 10 -5 0
-10 -4 -10 -10z"/>
<path d="M860 540 c-8 -5 -10 -10 -5 -10 6 0 17 5 25 10 8 5 11 10 5 10 -5 0
-17 -5 -25 -10z"/>
<path d="M839 359 c16 -6 28 -6 35 1 7 7 -1 10 -24 9 -33 0 -34 -1 -11 -10z"/>
<path d="M967 343 c3 -7 14 -13 24 -13 10 0 19 -3 19 -7 0 -5 13 -8 29 -8 16
0 27 3 24 8 -2 4 -16 7 -30 7 -16 0 -23 5 -20 13 3 8 -5 12 -23 12 -19 1 -26
-3 -23 -12z"/>
<path d="M1254 345 c-7 -18 -31 -20 -36 -3 -3 7 -7 4 -10 -7 -4 -17 0 -20 26
-20 25 0 31 4 31 23 0 26 -3 28 -11 7z"/>
<path d="M890 340 c8 -5 22 -9 30 -9 10 0 8 3 -5 9 -27 12 -43 12 -25 0z"/>
<path d="M940 326 c0 -2 7 -7 16 -10 8 -3 12 -2 9 4 -6 10 -25 14 -25 6z"/>
<path d="M1254 885 c-8 -21 2 -32 28 -30 21 2 24 6 20 35 -3 15 -42 12 -48 -5z"/>
<path d="M1434 601 c3 -5 16 -11 28 -14 22 -6 22 -5 4 8 -22 17 -40 20 -32 6z"/>
<path d="M1388 533 c7 -3 16 -2 19 1 4 3 -2 6 -13 5 -11 0 -14 -3 -6 -6z"/>
<path d="M872 1765 c0 -16 2 -22 5 -12 2 9 2 23 0 30 -3 6 -5 -1 -5 -18z"/>
<path d="M1392 1725 c0 -16 2 -22 5 -12 2 9 2 23 0 30 -3 6 -5 -1 -5 -18z"/>
<path d="M855 1680 c-4 -28 -5 -53 -2 -56 2 -3 7 19 11 47 4 28 5 53 3 56 -3
2 -8 -19 -12 -47z"/>
<path d="M640 1704 c0 -12 8 -25 17 -28 10 -4 14 -4 10 0 -4 4 -1 14 6 22 10
13 9 14 -2 8 -8 -5 -17 -3 -22 5 -7 11 -9 9 -9 -7z"/>
<path d="M1402 1665 c0 -16 2 -22 5 -12 2 9 2 23 0 30 -3 6 -5 -1 -5 -18z"/>
<path d="M1412 1610 c0 -14 2 -19 5 -12 2 6 2 18 0 25 -3 6 -5 1 -5 -13z"/>
<path d="M842 1590 c0 -14 2 -19 5 -12 2 6 2 18 0 25 -3 6 -5 1 -5 -13z"/>
<path d="M559 1563 c-13 -17 -13 -17 6 -3 11 8 22 16 24 17 2 2 0 3 -6 3 -6 0
-17 -8 -24 -17z"/>
<path d="M1422 1550 c0 -14 2 -19 5 -12 2 6 2 18 0 25 -3 6 -5 1 -5 -13z"/>
<path d="M832 1535 c0 -16 2 -22 5 -12 2 9 2 23 0 30 -3 6 -5 -1 -5 -18z"/>
<path d="M1432 1490 c0 -14 2 -19 5 -12 2 6 2 18 0 25 -3 6 -5 1 -5 -13z"/>
<path d="M1685 1500 c3 -5 8 -10 11 -10 2 0 4 5 4 10 0 6 -5 10 -11 10 -5 0
-7 -4 -4 -10z"/>
<path d="M822 1475 c0 -16 2 -22 5 -12 2 9 2 23 0 30 -3 6 -5 -1 -5 -18z"/>
<path d="M1442 1430 c0 -14 2 -19 5 -12 2 6 2 18 0 25 -3 6 -5 1 -5 -13z"/>
<path d="M812 1415 c0 -16 2 -22 5 -12 2 9 2 23 0 30 -3 6 -5 -1 -5 -18z"/>
<path d="M664 1408 l-19 -23 23 19 c21 18 27 26 19 26 -2 0 -12 -10 -23 -22z"/>
<path d="M1575 1410 c10 -11 20 -20 23 -20 3 0 -3 9 -13 20 -10 11 -20 20 -23
20 -3 0 3 -9 13 -20z"/>
<path d="M1452 1375 c0 -16 2 -22 5 -12 2 9 2 23 0 30 -3 6 -5 -1 -5 -18z"/>
<path d="M802 1355 c0 -16 2 -22 5 -12 2 9 2 23 0 30 -3 6 -5 -1 -5 -18z"/>
<path d="M1462 1315 c0 -16 2 -22 5 -12 2 9 2 23 0 30 -3 6 -5 -1 -5 -18z"/>
<path d="M1502 1310 c0 -14 2 -19 5 -12 2 6 2 18 0 25 -3 6 -5 1 -5 -13z"/>
<path d="M792 1295 c0 -16 2 -22 5 -12 2 9 2 23 0 30 -3 6 -5 -1 -5 -18z"/>
<path d="M734 1238 c-9 -40 -13 -44 -79 -76 -94 -45 -165 -91 -165 -107 0 -14
87 -95 102 -95 5 0 47 20 93 44 l83 43 -26 27 -27 26 18 86 c10 48 16 88 14
90 -2 3 -8 -15 -13 -38z"/>
<path d="M1472 1260 c0 -14 2 -19 5 -12 2 6 2 18 0 25 -3 6 -5 1 -5 -13z"/>
<path d="M1512 1260 c0 -14 2 -19 5 -12 2 6 2 18 0 25 -3 6 -5 1 -5 -13z"/>
<path d="M782 1240 c0 -14 2 -19 5 -12 2 6 2 18 0 25 -3 6 -5 1 -5 -13z"/>
<path d="M1482 1205 c0 -16 2 -22 5 -12 2 9 2 23 0 30 -3 6 -5 -1 -5 -18z"/>
<path d="M1525 1207 c19 -96 18 -113 -7 -142 l-25 -28 81 -39 c66 -33 84 -37
101 -28 35 19 85 69 85 85 0 18 -70 63 -157 102 -42 19 -66 36 -73 53 l-10 25
5 -28z"/>
<path d="M772 1185 c0 -16 2 -22 5 -12 2 9 2 23 0 30 -3 6 -5 -1 -5 -18z"/>
<path d="M1797 1161 c-4 -17 -3 -21 5 -13 5 5 8 16 6 23 -3 8 -7 3 -11 -10z"/>
<path d="M1492 1145 c0 -16 2 -22 5 -12 2 9 2 23 0 30 -3 6 -5 -1 -5 -18z"/>
<path d="M1125 1130 c-3 -5 1 -10 9 -10 9 0 16 5 16 10 0 6 -4 10 -9 10 -6 0
-13 -4 -16 -10z"/>
<path d="M910 1119 c-25 -4 -64 -8 -87 -8 -30 -1 -43 -5 -43 -15 0 -25 17 -28
64 -12 25 9 75 18 113 22 92 9 125 23 53 22 -30 0 -75 -4 -100 -9z"/>
<path d="M1490 1081 c-6 -12 -24 -21 -45 -24 l-35 -4 36 1 c26 1 41 7 52 24 8
12 12 22 9 22 -4 0 -11 -9 -17 -19z"/>
<path d="M1118 1083 c12 -2 30 -2 40 0 9 3 -1 5 -23 4 -22 0 -30 -2 -17 -4z"/>
<path d="M1243 1073 c15 -2 39 -2 55 0 15 2 2 4 -28 4 -30 0 -43 -2 -27 -4z"/>
<path d="M1353 1063 c9 -2 25 -2 35 0 9 3 1 5 -18 5 -19 0 -27 -2 -17 -5z"/>
<path d="M1835 1004 c-9 -15 -12 -23 -6 -20 11 7 35 46 28 46 -3 0 -12 -12
-22 -26z"/>
<path d="M400 1006 c0 -2 8 -10 18 -17 15 -13 16 -12 3 4 -13 16 -21 21 -21
13z"/>
<path d="M430 966 c0 -2 8 -10 18 -17 15 -13 16 -12 3 4 -13 16 -21 21 -21 13z"/>
<path d="M1799 953 c-13 -16 -12 -17 4 -4 16 13 21 21 13 21 -2 0 -10 -8 -17
-17z"/>
<path d="M477 909 c12 -12 24 -21 27 -18 2 2 -8 13 -22 23 l-27 19 22 -24z"/>
<path d="M1761 910 c-13 -11 -19 -20 -14 -20 6 0 18 9 28 20 23 25 17 25 -14
0z"/>
<path d="M538 893 c12 -2 32 -2 45 0 12 2 2 4 -23 4 -25 0 -35 -2 -22 -4z"/>
<path d="M1582 765 c0 -16 2 -22 5 -12 2 9 2 23 0 30 -3 6 -5 -1 -5 -18z"/>
<path d="M651 699 c-7 -45 -10 -83 -8 -85 2 -3 10 32 17 76 7 44 11 83 8 85
-3 3 -10 -32 -17 -76z"/>
<path d="M1592 705 c0 -16 2 -22 5 -12 2 9 2 23 0 30 -3 6 -5 -1 -5 -18z"/>
<path d="M1602 645 c0 -16 2 -22 5 -12 2 9 2 23 0 30 -3 6 -5 -1 -5 -18z"/>
</g>
</svg>
