<?xml version="1.0" standalone="no"?>
<!DOCTYPE svg PUBLIC "-//W3C//DTD SVG 20010904//EN"
 "http://www.w3.org/TR/2001/REC-SVG-20010904/DTD/svg10.dtd">
<svg version="1.0" xmlns="http://www.w3.org/2000/svg"
 width="596.000000pt" height="512.000000pt" viewBox="0 0 596.000000 512.000000"
 preserveAspectRatio="xMidYMid meet">

<g transform="translate(0.000000,512.000000) scale(0.100000,-0.100000)"
fill="#000000" stroke="none">
<path d="M3710 5046 c-58 -13 -127 -34 -155 -48 -27 -14 -84 -31 -125 -37 -41
-7 -99 -16 -129 -22 -30 -5 -172 -9 -315 -9 -329 0 -436 -20 -546 -101 -15
-12 -57 -23 -109 -29 l-84 -11 -32 31 c-68 66 -256 97 -483 80 -263 -20 -338
-64 -317 -189 4 -26 2 -41 -7 -49 -8 -6 -115 -25 -238 -42 -436 -59 -428 -57
-562 -179 -88 -79 -194 -159 -314 -237 -46 -30 -91 -65 -99 -78 -14 -21 -15
-51 -10 -233 5 -141 11 -215 20 -229 7 -11 32 -26 54 -34 51 -17 57 -25 38
-54 -31 -47 -58 -161 -64 -266 l-6 -105 54 -100 c110 -208 142 -277 146 -320
l5 -43 -65 -42 c-58 -36 -68 -47 -82 -90 -13 -38 -30 -61 -71 -96 -31 -27 -57
-58 -60 -73 -13 -57 -54 -180 -83 -248 l-31 -72 -3 -228 c-1 -148 2 -249 10
-288 7 -33 15 -73 18 -90 3 -16 18 -61 32 -100 14 -38 29 -94 33 -123 5 -30
19 -67 33 -85 13 -18 34 -52 47 -77 12 -25 38 -66 57 -92 22 -31 37 -65 41
-95 7 -43 12 -51 53 -78 68 -44 219 -203 240 -252 10 -24 23 -62 29 -85 20
-75 78 -120 195 -153 33 -9 110 -32 170 -50 130 -40 294 -78 424 -100 98 -16
329 -67 613 -136 165 -40 169 -41 255 -30 104 14 193 38 193 52 0 5 12 21 26
34 25 23 34 25 138 25 119 0 191 14 531 106 88 24 174 45 190 48 17 3 57 14
90 25 33 11 107 32 165 46 58 15 242 64 410 110 168 46 368 97 445 115 77 17
167 40 200 50 33 11 103 31 155 45 374 99 384 102 428 167 16 24 39 75 52 113
12 39 32 88 43 110 24 45 32 170 43 697 l6 288 32 19 c39 24 76 71 138 171 35
56 62 86 102 114 60 41 76 73 76 152 0 44 3 38 -224 374 -54 80 -109 158 -122
173 -13 16 -24 34 -24 40 0 25 203 296 276 369 l76 76 8 109 c7 84 13 110 26
118 74 44 84 65 115 236 40 224 39 243 -17 310 -85 101 -360 391 -389 409 -38
24 -184 64 -330 91 -79 15 -135 19 -198 16 -49 -3 -105 -1 -125 4 -20 5 -100
22 -177 39 -157 33 -221 54 -229 75 -9 25 -64 45 -182 65 -163 28 -380 26
-524 -4z m405 -106 c61 -5 127 -14 148 -20 89 -26 1 -72 -173 -91 -191 -21
-440 16 -440 66 0 39 252 64 465 45z m-607 -181 c-3 -67 -1 -73 22 -90 46 -35
121 -41 228 -20 54 11 142 22 197 25 55 3 147 17 204 32 57 14 105 23 108 20
13 -13 -73 -48 -186 -75 -166 -40 -252 -55 -456 -81 -93 -12 -194 -25 -223
-29 -29 -5 -55 -4 -58 1 -3 4 0 25 7 46 7 20 13 81 14 134 l0 97 30 4 c17 2
50 5 73 5 l44 2 -4 -71z m-403 40 c76 -14 117 -35 113 -57 -14 -73 -466 -99
-598 -34 -42 21 -51 48 -18 61 96 38 373 54 503 30z m1475 -9 c106 -15 110
-16 110 -33 0 -10 -27 -17 -100 -26 -154 -17 -160 -16 -160 18 0 34 25 64 49
57 9 -2 54 -10 101 -16z m-2527 -14 c30 -14 15 -39 -33 -54 -62 -18 -290 -20
-360 -3 -104 26 -112 43 -29 61 52 10 396 7 422 -4z m3112 -95 c66 -33 115
-85 115 -124 0 -39 -29 -75 -75 -92 -70 -27 -194 -18 -264 21 -96 52 -140 145
-90 190 40 36 71 44 162 40 74 -3 98 -8 152 -35z m-2739 -27 c4 -15 2 -45 -3
-68 -12 -55 -9 -63 40 -87 56 -29 138 -35 233 -16 43 9 131 21 194 27 63 6
150 20 194 30 43 11 87 20 97 20 26 0 24 -26 -4 -44 -41 -28 -307 -89 -507
-116 -47 -7 -132 -23 -190 -36 -57 -14 -150 -31 -205 -40 -127 -19 -333 -69
-408 -99 -43 -18 -64 -22 -80 -15 -12 5 -92 26 -177 45 -85 20 -209 49 -275
64 -66 16 -189 43 -274 62 -149 32 -184 48 -150 70 8 5 39 9 70 9 31 0 106 9
165 19 60 11 149 27 198 36 49 8 91 13 94 10 3 -3 0 -20 -6 -38 -32 -90 8
-122 193 -151 215 -34 450 -17 565 42 64 32 72 55 40 106 -19 31 -20 41 -11
97 6 34 13 64 16 68 8 8 111 28 152 30 27 1 34 -3 39 -25z m3226 -280 c85 -86
106 -113 96 -121 -15 -12 -147 -38 -470 -93 -131 -22 -268 -46 -305 -54 -37
-8 -102 -20 -143 -26 -41 -7 -111 -20 -155 -30 -44 -10 -136 -28 -205 -40 -69
-12 -305 -55 -525 -96 -400 -75 -445 -84 -714 -130 -80 -14 -228 -45 -330 -70
-238 -59 -340 -64 -414 -22 -52 29 -507 406 -507 419 0 21 317 88 342 73 4 -3
8 -19 8 -35 0 -95 91 -173 250 -214 119 -31 265 -2 306 60 10 15 20 53 22 85
5 66 -8 96 -62 152 -40 41 -39 43 34 66 43 14 474 94 625 117 139 21 479 77
655 109 300 54 486 86 503 86 14 0 17 -9 17 -45 0 -58 17 -90 72 -142 122
-112 297 -158 459 -119 90 21 173 86 190 149 13 47 15 121 4 166 -6 31 -1 26
65 -50 40 -46 122 -134 182 -195z m-3832 201 c41 0 114 4 163 8 l87 9 0 -61
c0 -58 -2 -62 -27 -72 -16 -7 -104 -12 -208 -13 -236 -1 -265 10 -265 110 l0
34 88 -7 c48 -5 121 -8 162 -8z m840 -20 l35 -13 -47 -1 c-44 -1 -65 8 -51 23
9 8 22 7 63 -9z m-1942 -241 c-3 -23 -10 -29 -53 -40 -27 -7 -52 -13 -54 -14
-2 0 19 18 45 40 58 47 66 49 62 14z m307 -59 c33 -7 130 -30 215 -50 180 -44
240 -58 370 -85 52 -11 109 -24 125 -29 17 -5 42 -12 58 -15 32 -7 36 -39 12
-85 -16 -31 -33 -41 -72 -41 -30 0 -377 76 -569 124 -76 20 -172 42 -212 51
-117 24 -125 33 -101 118 l10 39 52 -7 c29 -4 79 -13 112 -20z m1669 -16 c72
-18 126 -86 126 -158 0 -33 -3 -34 -92 -46 -58 -8 -110 6 -171 45 -44 28 -87
80 -87 107 0 43 136 74 224 52z m-1947 -70 c7 -19 12 -60 12 -91 l1 -58 38 0
c39 0 171 -27 412 -85 325 -78 528 -124 573 -128 58 -6 68 6 94 105 10 37 20
68 24 68 3 0 46 -35 95 -77 152 -132 402 -326 457 -355 39 -21 66 -28 108 -28
30 0 224 33 430 74 401 80 559 110 819 157 161 28 407 74 590 109 85 17 221
41 301 55 81 13 175 31 210 39 54 13 317 61 384 70 17 3 184 32 378 67 33 6
61 9 62 7 4 -3 -13 -128 -21 -155 -4 -15 -37 -23 -244 -61 -448 -83 -621 -115
-805 -152 -110 -21 -301 -58 -425 -81 -329 -60 -1123 -215 -1280 -249 -235
-50 -303 -61 -400 -65 -120 -5 -164 9 -285 93 -49 35 -130 90 -180 122 -49 33
-117 80 -150 106 -75 57 -132 87 -140 74 -8 -13 -140 -13 -207 1 -54 10 -212
46 -528 119 -96 22 -202 50 -235 61 l-60 21 -60 -27 c-97 -43 -374 -137 -385
-130 -6 4 -10 56 -10 124 l0 119 93 43 c50 24 139 68 196 97 57 29 109 51 115
49 6 -2 16 -19 23 -38z m94 -394 c58 -21 326 -86 509 -124 80 -17 168 -37 197
-45 28 -8 89 -18 135 -22 95 -8 129 -22 243 -104 147 -106 401 -251 489 -280
43 -14 43 1 7 -167 -12 -58 -32 -115 -52 -150 -34 -60 -140 -173 -162 -173 -7
0 -37 25 -67 56 -69 71 -196 167 -272 205 -163 82 -346 139 -450 139 -50 0
-225 -39 -390 -86 -240 -70 -236 -70 -166 18 61 76 74 248 28 356 -28 64 -102
135 -178 170 -60 28 -142 35 -229 19 -37 -6 -44 -4 -53 14 -9 17 -8 25 7 41
25 28 51 40 193 88 69 23 129 46 135 51 13 12 26 11 76 -6z m4757 -60 c-3 -31
-10 -61 -16 -67 -12 -12 -195 -50 -357 -74 -60 -8 -263 -47 -450 -85 -187 -37
-383 -75 -435 -84 -52 -8 -158 -28 -235 -44 -77 -16 -201 -41 -275 -55 -214
-41 -286 -55 -425 -86 -71 -16 -195 -41 -275 -54 -172 -30 -447 -80 -510 -95
-24 -5 -46 -8 -48 -7 -7 7 11 107 22 122 12 16 114 37 405 84 69 12 174 31
235 45 61 13 167 35 236 49 69 14 157 32 195 40 39 8 180 36 315 61 135 25
324 61 420 80 96 19 229 43 295 55 66 11 136 25 155 30 37 10 151 29 210 36
19 3 49 9 65 13 17 5 95 21 175 36 80 15 172 32 205 40 101 22 98 23 93 -40z
m-5092 -230 c4 -8 -10 -48 -30 -89 -34 -69 -36 -76 -28 -133 10 -70 30 -106
75 -133 38 -24 75 -25 122 -6 48 20 75 68 75 134 0 61 -18 102 -68 155 l-36
37 29 0 c113 0 182 -175 121 -305 -32 -69 -137 -165 -181 -165 -72 0 -185 117
-214 223 -17 59 -10 171 13 219 29 59 108 100 122 63z m4817 -21 c14 -14 -127
-260 -169 -295 -25 -20 -86 -37 -163 -45 l-62 -7 72 118 c39 64 77 131 84 149
12 28 20 32 78 43 35 7 82 19 103 27 49 17 49 17 57 10z m-379 -83 c3 -5 -1
-14 -10 -22 -8 -7 -34 -44 -56 -83 -67 -115 -137 -204 -168 -214 -15 -6 -31
-8 -34 -5 -3 4 9 34 28 67 18 34 55 102 81 151 26 50 49 92 50 94 5 4 65 19
87 20 9 1 19 -3 22 -8z m-4320 -43 c19 -27 21 -79 4 -96 -47 -47 -107 50 -61
100 21 24 39 23 57 -4z m4029 -25 c-4 -10 -17 -34 -29 -54 -12 -19 -40 -71
-62 -115 -56 -111 -72 -123 -189 -145 -53 -10 -99 -17 -101 -14 -6 5 -7 2 86
170 l77 140 55 7 c30 4 71 11 90 17 59 15 80 14 73 -6z m-383 -66 c0 -8 -41
-75 -91 -151 -72 -107 -100 -141 -130 -157 -21 -10 -42 -19 -48 -19 -5 0 12
36 39 79 26 44 65 116 86 160 32 66 44 83 69 90 45 14 75 13 75 -2z m-301 -89
c-23 -60 -70 -148 -121 -228 l-35 -55 -89 -17 c-49 -10 -100 -20 -113 -24 -22
-7 -17 8 58 152 46 87 87 163 92 168 7 7 178 50 221 55 4 1 -2 -23 -13 -51z
m-369 -32 c0 -16 -180 -311 -203 -332 -7 -6 -31 -14 -54 -18 l-42 -6 79 162
78 163 63 17 c72 18 79 19 79 14z m-310 -64 c0 -20 -56 -145 -103 -229 -42
-74 -58 -95 -83 -103 -38 -13 -227 -50 -232 -45 -4 3 29 67 116 224 l57 104
60 13 c33 7 85 19 115 27 68 19 70 19 70 9z m2013 -91 c43 -52 168 -224 265
-366 l34 -49 -21 -17 c-11 -9 -71 -28 -133 -42 -253 -57 -360 -80 -493 -107
-77 -16 -185 -39 -240 -53 -55 -13 -190 -46 -300 -72 -110 -26 -317 -76 -460
-112 -143 -36 -316 -77 -385 -93 -113 -25 -351 -84 -505 -124 -96 -26 -117
-22 -162 27 -50 55 -84 104 -196 289 -51 84 -100 163 -107 175 -10 15 -11 26
-5 32 13 13 237 71 273 71 15 0 61 9 102 20 127 33 287 67 465 101 94 17 258
53 365 80 107 26 247 58 310 70 171 31 200 37 380 74 91 18 183 36 205 40 22
3 76 15 120 25 173 41 387 85 425 89 8 0 37 -26 63 -58z m-2419 21 c11 -18
-132 -233 -220 -330 -34 -37 -49 -46 -114 -62 -41 -11 -84 -20 -94 -20 -11 0
-27 -7 -37 -16 -16 -14 -16 -20 -5 -57 15 -49 99 -237 123 -275 9 -15 79 -123
156 -239 l139 -212 -37 -88 c-21 -49 -41 -92 -46 -98 -15 -16 -10 -61 9 -78 9
-8 37 -19 62 -24 42 -8 45 -11 52 -48 4 -22 7 -202 7 -401 1 -395 -1 -412 -61
-526 -33 -61 -105 -129 -177 -165 -35 -18 -61 -23 -128 -23 -46 0 -83 2 -83 5
0 24 40 72 83 99 69 45 153 135 179 193 20 44 22 70 26 290 2 133 2 253 -2
267 -5 21 -12 26 -39 26 -57 0 -72 -25 -85 -139 -7 -56 -12 -159 -12 -230 0
-148 -1 -150 -102 -227 -74 -58 -128 -138 -164 -247 -36 -109 -72 -147 -140
-147 -65 0 -325 61 -497 116 -111 36 -334 94 -361 94 -3 0 -6 4 -6 9 0 13 77
29 225 46 180 20 507 109 622 168 36 19 96 84 119 129 9 18 29 47 44 63 43 45
97 140 120 211 12 35 31 71 42 79 15 10 24 31 30 70 4 30 12 80 16 110 5 30
17 64 27 75 15 16 20 44 25 123 8 131 3 318 -10 353 -6 14 -17 71 -25 126 -8
54 -24 117 -35 139 -11 21 -32 72 -46 112 -14 39 -55 132 -90 204 -75 153 -79
123 39 278 38 49 84 120 103 157 18 36 39 70 46 75 7 4 78 15 158 24 80 9 148
17 152 18 4 0 9 -3 12 -7z m-1374 -26 c0 -17 22 -26 48 -19 11 2 23 0 26 -6
12 -19 -45 -33 -114 -28 -97 6 -250 30 -250 39 0 6 14 10 90 21 14 3 64 5 113
6 68 1 87 -2 87 -13z m125 -36 c-3 -5 -13 -10 -21 -10 -8 0 -14 5 -14 10 0 6
9 10 21 10 11 0 17 -4 14 -10z m-420 -130 c302 -82 521 -284 704 -647 97 -193
140 -566 91 -788 -46 -213 -146 -398 -296 -550 -261 -265 -712 -284 -1035 -44
-216 160 -387 434 -472 754 -30 117 -31 126 -32 335 0 179 3 225 18 275 33
110 76 216 117 285 101 174 318 340 512 395 78 22 288 14 393 -15z m525 16
c-14 -13 -71 -31 -132 -43 -20 -4 -30 -1 -34 11 -13 33 14 46 99 46 69 0 79
-2 67 -14z m280 -92 c23 -5 36 -16 48 -41 10 -21 12 -37 6 -43 -11 -11 -266
-70 -276 -64 -4 3 -27 31 -52 64 l-45 59 32 6 c151 24 231 30 287 19z m155
-200 c9 -4 25 -23 35 -44 25 -49 18 -54 -85 -69 -44 -6 -100 -17 -124 -23 -44
-11 -44 -11 -77 25 -51 56 -47 63 59 86 137 31 167 34 192 25z m3235 -188 c0
-2 -8 -24 -19 -48 -31 -72 -53 -85 -202 -119 -74 -17 -181 -41 -239 -54 -279
-63 -343 -78 -445 -105 -60 -15 -207 -51 -325 -79 -118 -28 -258 -62 -310 -76
-466 -120 -932 -226 -956 -218 -7 2 -5 25 5 64 l16 60 50 14 c27 7 104 26 170
40 66 15 165 38 220 52 55 14 141 34 190 45 50 10 131 29 180 43 50 14 142 37
205 51 142 33 405 95 525 124 251 61 377 90 440 100 39 7 93 18 120 26 62 17
165 40 269 59 43 8 81 17 84 20 6 6 22 7 22 1z m-3100 -38 c39 -64 33 -68
-175 -112 -82 -17 -89 -14 -110 57 -16 53 -12 56 63 58 26 0 72 7 102 14 88
20 98 19 120 -17z m84 -228 c29 -73 27 -76 -76 -100 -50 -12 -113 -24 -139
-27 l-48 -6 -16 58 c-19 64 -14 75 37 75 15 0 38 4 53 10 14 5 45 12 67 15 23
3 44 7 46 10 3 3 18 5 33 5 22 0 30 -7 43 -40z m2856 -45 c5 -14 11 -204 12
-422 3 -393 3 -399 -20 -468 -37 -110 -63 -157 -111 -193 -24 -18 -46 -30 -49
-28 -3 3 9 36 26 73 17 38 43 113 58 168 l27 100 1 390 c0 254 4 393 11 397
19 14 36 8 45 -17z m-184 -41 c10 -38 -3 -733 -14 -774 -5 -19 -15 -60 -22
-90 -17 -73 -43 -123 -93 -177 -40 -43 -133 -100 -145 -89 -3 3 13 46 36 94
59 122 74 206 70 373 -3 146 -11 169 -54 169 -13 0 -32 -8 -43 -19 -16 -16
-19 -40 -23 -192 -6 -193 -21 -264 -81 -374 -27 -51 -41 -65 -89 -90 -31 -16
-59 -27 -62 -25 -2 3 14 43 36 90 60 127 75 198 83 413 5 143 4 191 -5 202 -8
10 -31 15 -71 15 -54 0 -59 -2 -65 -25 -3 -14 -4 -69 -2 -123 3 -53 1 -147 -3
-208 -7 -94 -14 -126 -49 -216 -46 -120 -64 -143 -123 -158 -23 -6 -67 -21
-97 -35 -67 -29 -214 -75 -241 -75 -17 0 -13 11 31 98 71 139 79 201 87 647 3
198 10 365 15 371 5 7 25 15 46 18 20 4 50 9 65 12 l29 6 -4 -134 c-3 -149 3
-168 52 -168 15 0 37 8 49 18 19 16 21 28 23 166 l3 150 50 13 c72 18 82 17
90 -14 10 -41 24 -53 61 -53 37 0 64 29 64 67 0 30 36 62 79 68 30 5 244 59
276 70 25 9 35 3 41 -21z m-2624 -169 c4 -29 3 -54 -3 -61 -22 -27 -226 -75
-261 -62 -17 7 -32 97 -18 112 14 14 212 65 245 63 28 -2 30 -5 37 -52z m1552
-86 c8 -44 7 -295 -4 -549 -10 -234 -19 -276 -90 -425 -48 -101 -89 -136 -201
-174 -120 -40 -128 -39 -95 2 78 97 106 182 105 327 -1 180 -20 231 -81 214
l-33 -10 -6 -154 c-7 -171 -17 -213 -80 -345 -30 -63 -46 -86 -67 -93 -15 -6
-35 -13 -44 -17 -15 -6 -16 -3 -8 24 5 17 20 59 34 94 41 102 47 174 48 593 1
319 4 397 15 406 8 6 37 13 65 16 l51 5 -7 -140 c-8 -156 -9 -153 59 -153 53
0 57 13 53 176 l-3 147 40 15 c51 19 217 70 231 71 6 1 14 -13 18 -30z m-1544
-174 c0 -69 -12 -78 -144 -105 -144 -29 -138 -31 -134 42 3 71 -7 65 153 98
132 27 125 29 125 -35z m885 -361 c0 -391 -4 -453 -35 -550 -24 -75 -72 -152
-110 -179 -38 -27 -324 -129 -343 -122 -5 1 12 27 38 57 63 74 83 115 106 222
18 82 20 127 18 487 l-1 396 23 12 c13 7 48 15 79 18 30 4 64 11 75 16 39 18
130 47 140 45 6 -2 10 -144 10 -402z m-935 119 c-1 -55 -22 -84 -75 -104 -28
-10 -63 -19 -80 -19 -16 0 -53 -6 -82 -14 -28 -8 -54 -12 -56 -9 -16 15 31
120 56 127 53 16 187 44 210 45 23 1 27 -3 27 -26z m-102 -260 c-4 -54 -44
-77 -157 -92 -50 -6 -105 -14 -122 -18 l-31 -6 21 42 c25 47 35 53 146 76 44
9 91 21 105 25 40 13 41 12 38 -27z m-158 -238 c0 -26 9 -22 -189 -79 -60 -17
-111 -21 -111 -8 0 28 77 67 177 91 110 27 123 26 123 -4z"/>
<path d="M4620 4336 c-19 -7 -42 -25 -50 -39 -13 -24 -13 -30 0 -54 37 -65
132 -93 182 -54 56 44 42 118 -27 147 -41 17 -58 17 -105 0z m68 -60 c3 -13
-1 -17 -14 -14 -11 2 -20 11 -22 22 -3 13 1 17 14 14 11 -2 20 -11 22 -22z"/>
<path d="M3743 4193 c-28 -19 -31 -72 -6 -109 23 -35 84 -64 136 -64 58 0 97
36 97 89 -1 48 -19 70 -76 87 -61 18 -123 17 -151 -3z m125 -35 c18 -18 15
-27 -14 -38 -35 -14 -58 3 -43 31 11 22 39 25 57 7z"/>
<path d="M3000 4043 c-75 -28 -64 -110 20 -153 55 -28 102 -26 139 6 42 35 43
84 2 125 -26 26 -36 29 -88 28 -32 0 -65 -3 -73 -6z m95 -63 c4 -6 -5 -10 -19
-10 -14 0 -26 5 -26 10 0 6 9 10 19 10 11 0 23 -4 26 -10z"/>
<path d="M1274 3456 c-28 -28 -34 -42 -34 -76 0 -36 6 -48 39 -81 30 -30 46
-39 73 -39 72 0 121 76 99 151 -25 84 -115 107 -177 45z"/>
<path d="M1659 3361 c-47 -48 -39 -101 22 -131 50 -26 65 -25 94 6 33 36 35
104 3 134 -33 30 -83 26 -119 -9z"/>
<path d="M2094 3201 c-29 -13 -61 -56 -69 -92 -17 -74 52 -191 119 -203 47 -9
100 15 126 56 17 27 20 46 18 101 -3 62 -6 70 -40 104 -30 29 -45 36 -85 39
-26 2 -58 0 -69 -5z m101 -122 c4 -5 4 -21 1 -35 -5 -17 -13 -24 -30 -24 -26
0 -40 23 -31 51 7 21 49 26 60 8z"/>
<path d="M4917 2925 c-71 -25 -127 -100 -127 -168 0 -35 34 -91 81 -134 77
-70 228 -103 299 -66 51 27 80 76 80 135 0 62 -21 106 -77 164 -75 78 -165
102 -256 69z m148 -146 c40 -35 46 -72 15 -89 -25 -13 -55 -5 -97 26 -58 44
-52 94 13 94 23 0 44 -10 69 -31z"/>
<path d="M4327 2789 c-71 -11 -134 -52 -159 -104 -19 -38 -20 -49 -10 -83 34
-112 166 -205 290 -204 114 1 195 115 157 221 -45 127 -147 189 -278 170z m88
-139 c42 -26 60 -64 39 -85 -38 -38 -109 -19 -147 39 -14 21 -14 26 -1 45 19
27 66 28 109 1z"/>
<path d="M3611 2638 c-98 -41 -144 -134 -106 -209 57 -109 155 -179 265 -187
109 -8 168 34 191 135 13 59 -1 104 -51 167 -85 107 -189 140 -299 94z m177
-155 c31 -39 37 -63 18 -81 -53 -53 -203 46 -156 103 27 32 103 20 138 -22z"/>
<path d="M2972 2511 c-28 -10 -62 -27 -73 -37 -31 -27 -59 -88 -59 -125 0
-112 169 -259 298 -259 126 0 216 134 163 243 -29 60 -104 132 -175 167 -69
35 -83 36 -154 11z m101 -135 c33 -13 87 -68 87 -88 0 -22 -34 -48 -62 -48
-43 0 -123 77 -113 109 5 18 28 35 53 40 1 1 17 -5 35 -13z"/>
<path d="M2069 533 c-60 -37 -81 -139 -36 -181 54 -50 121 -55 163 -11 53 55
34 150 -38 193 -33 20 -56 20 -89 -1z"/>
<path d="M900 2690 c-205 -38 -382 -174 -514 -394 -52 -87 -74 -152 -97 -294
-40 -246 -4 -490 104 -707 58 -118 117 -204 193 -284 194 -206 406 -295 643
-271 205 22 361 110 482 272 96 130 141 230 174 388 114 551 -214 1162 -685
1276 -71 17 -242 26 -300 14z m363 -172 c109 -53 163 -90 172 -119 4 -11 1
-35 -5 -55 -9 -27 -9 -38 0 -49 15 -19 40 -19 40 -2 0 7 6 21 13 31 13 17 16
17 50 -13 67 -60 177 -250 217 -376 28 -91 51 -208 42 -217 -4 -4 -25 -11 -47
-16 -48 -10 -71 -45 -56 -86 10 -25 57 -56 86 -56 10 0 15 -10 15 -32 0 -132
-80 -344 -164 -435 l-51 -56 -6 77 c-4 43 -11 82 -16 87 -11 11 -94 -17 -110
-38 -35 -46 7 -123 66 -123 44 0 47 -18 10 -56 -63 -65 -231 -124 -351 -124
-214 0 -438 140 -582 361 -30 47 -67 109 -81 137 -34 67 -84 207 -93 257 -13
75 -6 366 11 443 33 151 119 291 230 375 139 106 238 138 413 134 97 -2 103
-4 197 -49z"/>
<path d="M1070 2523 c-69 -25 -43 -163 31 -163 44 0 69 31 69 85 0 67 -41 99
-100 78z"/>
<path d="M700 2423 c-22 -8 -40 -34 -40 -59 0 -36 -19 -69 -50 -87 -15 -9 -33
-30 -38 -47 -9 -24 -7 -33 9 -55 11 -14 29 -25 39 -25 22 0 55 39 69 83 8 24
23 38 54 52 39 19 42 23 45 64 5 64 -31 95 -88 74z"/>
<path d="M989 2236 c-92 -20 -168 -80 -240 -190 -119 -181 -99 -454 49 -669
61 -87 147 -147 261 -181 144 -42 307 8 392 121 183 242 146 608 -84 820 -56
52 -108 79 -189 98 -74 17 -113 18 -189 1z m214 -171 c61 -29 140 -108 170
-168 36 -74 48 -133 49 -246 1 -129 -23 -196 -93 -251 -59 -47 -106 -64 -179
-64 -112 -2 -215 73 -287 208 l-38 71 0 125 c0 114 2 130 26 180 31 65 88 125
144 152 50 24 153 21 208 -7z"/>
<path d="M1024 1921 c-64 -40 -114 -127 -114 -200 0 -68 50 -163 110 -209 42
-32 47 -34 115 -30 53 2 78 9 102 26 108 77 100 312 -14 399 -48 37 -152 44
-199 14z m137 -150 c36 -36 39 -86 8 -125 -27 -34 -54 -33 -90 3 -36 36 -39
86 -8 125 27 34 54 33 90 -3z"/>
<path d="M463 1829 c-20 -20 -17 -145 3 -153 29 -11 82 -6 95 10 19 23 24 117
7 131 -22 19 -91 26 -105 12z"/>
<path d="M633 1329 c-9 -9 -8 -19 5 -43 9 -17 15 -34 14 -39 -4 -13 37 -84 52
-90 23 -9 55 4 61 24 4 10 -1 34 -11 54 -13 28 -22 35 -45 35 -24 0 -28 4 -31
32 -3 35 -25 47 -45 27z"/>
<path d="M1067 1063 c-22 -6 -47 -54 -47 -91 0 -40 35 -62 99 -62 40 0 53 4
65 22 34 47 7 128 -41 128 -10 0 -27 2 -38 4 -11 2 -28 2 -38 -1z"/>
<path d="M4778 1814 c-53 -28 -77 -123 -40 -157 10 -9 35 -19 57 -22 32 -6 46
-2 68 15 24 19 27 28 27 79 0 93 -41 124 -112 85z"/>
<path d="M4304 1322 c-8 -4 -16 -77 -23 -197 -7 -104 -14 -214 -17 -242 -5
-49 -4 -54 18 -62 31 -11 38 1 77 122 28 89 31 109 31 230 0 90 -4 137 -12
145 -13 13 -57 16 -74 4z"/>
<path d="M3153 1508 c-10 -16 -6 -171 5 -213 l9 -30 16 32 c35 67 7 268 -30
211z"/>
<path d="M3152 1048 c-6 -51 -16 -174 -22 -273 -6 -99 -13 -191 -15 -205 -3
-14 -1 -32 5 -40 8 -13 13 -12 37 6 45 34 56 93 57 304 0 153 -3 195 -18 243
-10 31 -22 57 -25 57 -4 0 -12 -42 -19 -92z"/>
<path d="M247 3 c18 -2 50 -2 70 0 21 2 7 4 -32 4 -38 0 -55 -2 -38 -4z"/>
</g>
</svg>
