<?xml version="1.0" standalone="no"?>
<!DOCTYPE svg PUBLIC "-//W3C//DTD SVG 20010904//EN"
 "http://www.w3.org/TR/2001/REC-SVG-20010904/DTD/svg10.dtd">
<svg version="1.0" xmlns="http://www.w3.org/2000/svg"
 width="1024.000000pt" height="1024.000000pt" viewBox="0 0 1024.000000 1024.000000"
 preserveAspectRatio="xMidYMid meet">

<g transform="translate(0.000000,1024.000000) scale(0.100000,-0.100000)"
fill="#000000" stroke="none">
<path d="M4030 9695 c-10 -12 -6 -27 19 -81 17 -36 51 -98 74 -138 24 -39 72
-120 107 -181 35 -60 91 -157 126 -215 113 -192 202 -394 228 -522 20 -97 20
-224 1 -307 -9 -35 -13 -66 -10 -69 3 -3 5 1 5 8 0 7 2 11 5 8 9 -9 -34 -120
-65 -168 -57 -89 -233 -240 -280 -240 -26 0 -40 -22 -40 -64 0 -21 -3 -37 -6
-34 -6 6 -54 -35 -54 -46 0 -17 -58 -63 -96 -75 -80 -26 -326 4 -419 51 -16 8
-47 18 -68 21 -20 3 -59 20 -85 37 l-47 30 45 -40 c80 -72 316 -199 445 -240
39 -12 104 -36 145 -52 178 -72 226 -87 318 -103 120 -20 305 -23 322 -5 29
31 72 43 178 51 63 5 131 12 151 15 64 11 101 61 115 154 4 25 15 60 26 77 20
33 49 168 51 238 1 58 -9 142 -26 208 -8 31 -21 81 -28 110 -7 28 -19 62 -25
73 -6 12 -9 24 -7 28 3 3 2 4 -2 1 -8 -7 -43 67 -37 77 3 5 0 8 -5 8 -6 0 -11
7 -11 16 0 8 -4 13 -9 9 -5 -3 -15 11 -21 30 -6 19 -15 35 -20 35 -4 0 -20 23
-34 52 -14 29 -26 45 -26 37 0 -7 -13 1 -28 20 -15 19 -37 45 -49 58 -13 13
-23 28 -23 34 0 15 -47 59 -54 51 -4 -3 -4 1 -1 10 4 11 0 18 -14 23 -12 3
-21 12 -21 18 0 15 -45 68 -52 61 -7 -6 -54 68 -50 79 1 4 -2 7 -7 7 -11 0
-85 149 -78 157 3 3 -4 22 -17 42 -24 37 -41 81 -38 94 1 4 -3 7 -9 7 -5 0 -8
4 -4 9 3 6 -3 18 -13 28 -10 10 -40 59 -66 108 -107 200 -231 351 -324 392
-61 27 -75 28 -92 8z m205 -1925 c-3 -5 -12 -10 -18 -10 -7 0 -6 4 3 10 19 12
23 12 15 0z"/>
<path d="M3929 9523 c-14 -16 -42 -50 -62 -78 -19 -27 -70 -84 -112 -125 -135
-131 -197 -198 -231 -247 -18 -27 -47 -64 -65 -83 -57 -61 -127 -184 -165
-292 -30 -84 -37 -121 -41 -203 -5 -93 -3 -107 26 -188 58 -167 138 -265 270
-331 87 -44 99 -46 37 -4 -26 17 -51 38 -54 47 -3 9 -23 43 -44 75 -101 157
-114 373 -34 557 52 121 101 184 288 371 98 98 196 203 219 233 31 41 48 55
66 55 23 0 62 -33 63 -53 0 -5 8 -21 18 -35 31 -45 31 -66 1 -108 -34 -47 -69
-117 -69 -138 0 -8 -9 -18 -20 -21 -15 -5 -20 -15 -20 -41 0 -27 -4 -34 -20
-34 -13 0 -20 -7 -20 -19 0 -10 -7 -24 -15 -31 -8 -7 -15 -16 -15 -21 0 -5 7
-9 15 -9 8 0 15 -9 15 -20 0 -13 -7 -20 -20 -20 -17 0 -20 -7 -20 -40 0 -33 3
-40 20 -40 17 0 20 -7 20 -40 l0 -40 80 0 c73 0 80 -2 80 -20 0 -13 7 -20 20
-20 13 0 20 7 20 20 0 17 7 20 40 20 33 0 40 3 40 20 0 11 5 20 10 20 6 0 10
9 10 20 0 11 5 20 10 20 6 0 10 18 10 40 0 22 -4 40 -10 40 -5 0 -10 9 -10 20
0 11 -4 20 -10 20 -5 0 -10 9 -10 20 0 11 -4 20 -10 20 -13 0 -13 130 0 150 8
12 10 12 10 1 0 -8 3 -11 6 -8 8 8 61 -79 126 -205 27 -54 51 -98 53 -98 16 0
-142 305 -246 475 -37 61 -97 169 -134 240 -85 164 -84 163 -116 128z"/>
<path d="M5964 9499 c-10 -11 -52 -51 -91 -88 -40 -37 -73 -72 -73 -78 0 -8
219 -133 234 -133 3 0 89 -40 192 -90 102 -49 188 -90 190 -90 12 0 350 -172
365 -186 14 -13 19 -31 19 -70 0 -56 -25 -144 -44 -156 -27 -18 -47 -7 -66 36
-24 56 -36 63 -382 225 -150 71 -327 155 -393 189 -66 33 -167 80 -224 103
-99 39 -105 40 -118 23 -18 -24 -16 -49 3 -65 24 -19 302 -165 614 -322 315
-158 377 -192 492 -266 107 -69 123 -95 113 -185 -7 -67 -12 -79 -36 -88 -13
-5 -18 -26 -24 -92 -8 -104 -15 -112 -87 -97 -47 11 -91 36 -142 83 -11 10
-29 18 -39 18 -11 0 -44 25 -73 55 -36 38 -75 66 -121 87 -37 17 -115 53 -173
80 -58 28 -161 76 -230 108 -69 32 -151 72 -184 89 -70 37 -89 39 -110 6 -23
-34 -20 -54 9 -65 13 -5 133 -63 267 -128 134 -66 329 -161 433 -212 105 -51
201 -100 215 -110 45 -32 94 -56 145 -73 66 -22 115 -53 115 -73 0 -8 -12 -35
-26 -59 -29 -50 -25 -51 -138 9 -37 20 -76 36 -86 36 -9 0 -23 7 -30 15 -29
35 -286 173 -635 340 -148 72 -207 81 -245 41 -35 -39 -21 -53 106 -107 60
-26 174 -79 254 -119 331 -166 433 -211 461 -205 22 5 29 2 34 -15 8 -26 61
-60 95 -60 14 0 49 -11 79 -25 29 -14 65 -24 79 -23 33 4 42 -29 37 -131 -3
-42 -2 -70 1 -63 3 6 10 12 16 12 16 0 4 -140 -16 -177 -9 -18 -27 -40 -40
-48 -23 -15 -27 -15 -69 7 -24 13 -84 49 -133 81 -145 95 -295 186 -318 193
-11 4 -39 19 -61 34 -22 15 -47 30 -55 33 -8 4 -43 24 -77 44 -227 138 -305
173 -349 156 -17 -6 -18 -32 0 -55 27 -36 155 -111 279 -163 37 -15 67 -32 67
-37 0 -4 7 -8 16 -8 18 0 100 -44 121 -65 8 -8 23 -15 33 -15 18 0 89 -36 100
-51 3 -3 15 -9 28 -13 12 -4 22 -12 22 -17 0 -5 7 -9 16 -9 9 0 36 -13 60 -30
25 -16 67 -37 95 -46 28 -9 66 -27 85 -40 19 -13 34 -22 34 -19 0 2 21 -5 48
-16 26 -11 58 -25 72 -31 14 -6 34 -15 45 -21 11 -5 36 -11 55 -13 56 -5 74
-10 78 -22 2 -7 11 -12 21 -12 9 0 22 -5 29 -12 7 -7 12 -9 12 -5 0 4 19 -3
43 -15 23 -12 49 -23 57 -24 8 0 35 -11 59 -24 54 -27 195 -40 204 -18 4 13 2
30 -23 173 -38 220 16 467 146 671 69 108 126 168 219 230 48 32 55 40 37 42
-12 2 -22 7 -22 11 0 5 -13 14 -30 21 -16 7 -30 19 -30 26 0 16 -36 33 -87 41
-18 3 -30 9 -28 13 6 10 -25 24 -44 21 -9 -2 -12 3 -7 14 3 10 2 14 -5 10 -5
-4 -16 -1 -24 5 -8 7 -15 9 -15 4 0 -5 -7 2 -16 14 -8 12 -12 27 -8 34 4 6 3
8 -3 5 -6 -4 -39 9 -73 28 -34 19 -65 35 -68 35 -4 0 -36 23 -72 50 -35 28
-70 48 -76 46 -12 -5 -24 36 -24 81 0 14 -4 21 -10 18 -6 -4 -10 6 -10 22 0
18 -3 24 -8 15 -6 -9 -12 -5 -20 13 -20 44 -14 62 21 56 4 0 7 4 7 10 0 5 5 7
11 3 6 -3 3 5 -6 20 -10 14 -14 26 -9 26 13 0 -39 51 -68 66 -15 8 -39 14 -54
14 -17 0 -47 16 -82 45 -30 25 -65 48 -78 51 -13 3 -24 10 -24 14 0 8 -26 17
-71 26 -18 3 -28 0 -32 -11 -4 -8 -12 -15 -20 -15 -26 0 -117 50 -117 65 0 8
-5 15 -11 15 -7 0 -9 10 -5 24 5 19 1 26 -13 31 -11 3 -64 36 -118 72 -54 36
-123 78 -153 94 -30 16 -89 56 -130 89 -41 33 -78 60 -81 60 -3 0 -14 -9 -25
-21z"/>
<path d="M1775 9019 c-4 -5 -18 -14 -31 -19 -14 -6 -24 -18 -24 -29 0 -10 41
-62 90 -116 104 -111 152 -179 210 -294 59 -116 81 -191 117 -393 3 -16 8 -28
12 -28 3 0 35 44 71 97 39 58 79 106 100 119 52 33 86 67 72 72 -8 2 -9 9 -2
23 9 15 8 17 -6 12 -12 -4 -15 -3 -10 5 5 8 2 10 -9 6 -20 -8 -65 43 -105 117
-87 166 -270 377 -363 420 -46 20 -112 25 -122 8z"/>
<path d="M5576 8902 c-15 -17 -25 -35 -21 -42 9 -15 74 -55 105 -65 24 -8 608
-292 743 -361 37 -20 99 -46 137 -59 38 -13 86 -35 107 -49 21 -14 41 -26 46
-26 4 0 7 24 5 53 l-3 52 -176 90 c-97 50 -188 98 -203 108 -14 9 -50 26 -80
37 -30 12 -71 32 -91 45 -20 14 -41 25 -47 25 -6 0 -86 39 -177 87 -91 47
-183 95 -203 106 -21 10 -54 21 -75 24 -33 4 -42 0 -67 -25z"/>
<path d="M1678 8672 c4 -181 -5 -246 -50 -367 -23 -60 -112 -208 -153 -253
l-43 -47 -18 38 c-17 36 -26 41 -70 39 -19 -1 -20 3 -14 44 4 25 11 49 17 55
13 13 0 91 -34 192 l-25 78 -28 -53 c-16 -29 -38 -85 -50 -123 -38 -125 -51
-158 -125 -310 -109 -227 -116 -254 -116 -415 -1 -136 22 -244 73 -350 33 -68
57 -100 124 -167 71 -70 99 -90 188 -133 92 -44 182 -75 320 -113 57 -15 267
8 320 35 23 12 43 20 44 18 10 -6 162 137 192 181 23 35 36 46 42 37 15 -24 8
-45 -28 -93 -32 -41 -33 -45 -13 -35 31 15 129 121 129 138 0 7 5 10 10 7 6
-3 10 -1 10 6 0 7 6 20 14 28 8 9 28 43 44 76 52 102 74 232 61 350 -17 148
-41 228 -94 309 -8 12 -20 60 -25 107 -6 46 -18 116 -26 154 -8 39 -17 80 -20
93 -4 20 -7 21 -19 9 -7 -8 -34 -49 -59 -91 -25 -43 -61 -96 -80 -119 -18 -23
-42 -58 -51 -77 l-18 -35 -18 41 c-10 22 -25 89 -34 148 -19 129 -74 324 -111
398 -38 76 -196 307 -236 345 l-33 32 3 -177z m179 -817 c25 -66 60 -163 79
-215 25 -69 45 -105 73 -135 52 -54 72 -97 78 -167 3 -32 10 -58 16 -58 10 0
4 -56 -14 -122 -17 -64 -80 -132 -154 -167 -198 -94 -371 -69 -501 72 -85 91
-108 149 -109 268 0 113 11 135 106 212 49 40 177 197 207 253 6 11 14 44 18
72 7 55 11 60 33 40 11 -10 13 -10 7 0 -5 8 -1 12 12 12 10 0 31 14 47 30 16
17 35 29 43 28 7 -2 34 -57 59 -123z m180 -177 c-3 -8 -6 -5 -6 6 -1 11 2 17
5 13 3 -3 4 -12 1 -19z"/>
<path d="M1749 7748 c-97 -145 -162 -229 -234 -301 -48 -47 -87 -95 -91 -111
-7 -29 9 -93 35 -136 32 -54 119 -134 105 -95 -4 8 -10 15 -15 15 -5 0 -9 22
-9 49 0 43 5 56 43 102 23 29 71 83 107 119 36 37 83 87 105 112 22 25 47 47
55 50 13 4 12 12 -4 64 -10 32 -31 83 -46 113 l-27 55 -24 -36z"/>
<path d="M1339 8584 c14 -24 57 -132 65 -164 27 -95 60 -190 66 -190 26 0 110
184 110 240 0 20 -8 35 -30 50 -42 30 -134 69 -181 76 -38 6 -40 6 -30 -12z"/>
<path d="M2459 8369 c-25 -27 -29 -39 -29 -88 0 -91 36 -240 112 -466 64 -191
71 -218 75 -310 7 -145 -23 -310 -74 -407 -96 -184 -281 -339 -465 -393 -32
-9 -60 -21 -63 -26 -4 -5 -13 -9 -21 -9 -8 0 -26 -11 -40 -25 -14 -14 -31 -25
-39 -25 -8 0 -15 -7 -15 -15 0 -9 -8 -18 -17 -21 -10 -4 -38 -15 -63 -26 -68
-31 -176 -43 -227 -25 -26 9 -47 11 -57 5 -9 -5 -26 -6 -39 -2 -12 4 -28 9
-35 10 -37 7 -151 75 -205 123 l-62 56 40 -48 c74 -90 212 -180 425 -276 19
-9 46 -23 60 -32 78 -50 373 -133 530 -148 109 -11 367 -7 550 8 58 4 133 8
167 7 50 -1 63 2 64 14 0 8 5 2 9 -14 5 -16 10 -82 11 -146 2 -151 10 -196 43
-228 26 -26 26 -26 26 -4 0 23 22 29 93 24 18 -1 27 3 27 13 0 8 3 15 8 15 4
0 27 29 51 65 25 36 51 71 58 77 22 18 15 33 -34 79 -25 24 -69 69 -97 99 -28
30 -85 89 -127 131 -83 81 -109 133 -90 181 13 34 186 189 274 244 39 26 81
57 93 70 12 13 23 21 26 19 21 -21 -2 286 -24 312 -5 7 -7 17 -3 22 3 6 0 21
-7 33 -6 13 -11 30 -10 40 2 9 -2 19 -8 23 -5 3 -10 12 -10 20 0 8 -14 29 -30
47 -17 18 -36 45 -42 60 -7 15 -16 24 -21 21 -4 -2 -23 11 -41 31 -18 20 -37
36 -44 36 -6 0 -14 9 -17 20 -3 11 -11 21 -16 21 -5 1 -15 2 -21 3 -7 0 -14
11 -16 24 -2 12 -12 27 -23 33 -12 6 -18 17 -15 24 3 9 0 12 -9 9 -7 -3 -16 3
-19 14 -4 11 -18 23 -32 26 -14 4 -22 11 -18 17 3 6 -2 19 -12 29 -32 32 -44
49 -44 60 0 5 -4 10 -10 10 -5 0 -10 4 -10 10 0 5 -21 28 -46 52 -54 51 -67
75 -88 155 -9 34 -32 99 -52 146 -32 78 -43 92 -115 156 -44 39 -87 71 -95 71
-9 0 -29 -14 -45 -31z"/>
<path d="M8505 8356 c-11 -6 -24 -16 -28 -23 -10 -15 -62 -41 -119 -57 l-42
-13 39 -13 c48 -16 183 -82 239 -118 176 -113 337 -305 461 -552 69 -138 105
-320 106 -545 0 -144 -2 -168 -24 -238 -14 -43 -44 -109 -67 -148 -77 -130
-264 -291 -401 -344 -64 -25 -118 -63 -118 -82 -1 -18 -91 -106 -124 -121 -22
-9 -49 -10 -118 -2 -108 12 -193 39 -272 86 -32 19 -60 34 -63 34 -2 0 -23 12
-47 26 l-42 27 30 -33 c17 -18 56 -50 88 -72 69 -47 324 -176 420 -212 37 -14
96 -41 131 -61 81 -45 130 -59 291 -85 72 -11 148 -27 170 -35 29 -11 91 -16
223 -18 100 -2 182 -1 182 2 0 4 21 7 47 8 25 1 67 7 92 13 25 6 65 11 88 13
30 1 43 6 43 17 0 13 1 13 10 0 6 -9 10 -10 10 -3 0 6 8 11 18 11 9 0 26 3 36
7 15 7 17 5 11 -6 -4 -8 2 -4 15 9 13 14 29 21 37 18 9 -4 22 -1 29 5 10 8 14
8 14 0 0 -6 5 -11 10 -11 6 0 10 6 10 14 0 17 11 25 40 31 11 2 34 13 50 25
17 12 30 18 30 13 0 -4 5 0 11 9 6 10 16 15 26 11 9 -4 19 1 25 10 5 10 16 17
24 17 10 0 13 7 8 24 -4 17 -1 25 12 30 10 4 21 2 24 -5 4 -6 10 15 12 47 3
32 10 60 16 62 7 2 12 9 12 15 0 8 -4 7 -12 -1 -20 -20 -27 -14 -15 13 7 14
16 25 20 25 4 0 3 9 -3 21 -9 15 -8 24 1 35 9 11 8 14 -7 15 -12 0 -14 3 -6 6
9 4 10 8 2 18 -8 10 -7 23 5 50 16 41 20 58 6 37 -6 -10 -11 -9 -22 5 -7 10
-9 15 -5 11 5 -4 15 0 22 10 19 24 17 36 -3 17 -15 -16 -17 -16 -26 0 -6 12
-4 30 6 56 16 41 7 55 -10 17 -9 -20 -10 -17 -9 20 0 31 -4 46 -16 53 -10 5
-14 17 -11 29 3 11 -1 28 -8 37 -9 11 -10 14 -2 9 9 -5 11 -2 7 8 -3 8 -12 17
-20 20 -11 4 -12 11 -4 32 6 15 8 29 5 32 -3 3 -5 0 -5 -6 0 -7 -4 -12 -10
-12 -5 0 -7 13 -3 32 4 22 3 29 -5 24 -8 -5 -12 1 -12 16 0 16 -3 19 -9 10 -6
-11 -10 -10 -15 4 -4 10 -1 21 6 26 11 6 10 8 0 8 -7 0 -10 5 -6 11 4 8 1 8
-13 1 -17 -10 -19 -8 -17 24 2 24 -1 34 -11 34 -8 0 -15 7 -15 16 0 8 -4 12
-10 9 -6 -3 -10 4 -10 18 0 14 -7 30 -15 37 -8 7 -12 17 -8 23 4 6 0 8 -11 4
-14 -6 -16 -3 -11 13 5 15 3 18 -8 14 -11 -4 -14 2 -11 23 2 15 1 20 -2 10 -3
-9 -9 -15 -14 -12 -5 3 -7 12 -3 21 3 8 1 14 -5 12 -11 -3 -62 48 -62 62 0 5
-9 12 -20 15 -11 4 -27 18 -35 33 -8 15 -14 23 -15 18 0 -4 -13 6 -29 23 -15
16 -32 27 -35 23 -4 -4 -16 4 -28 18 -11 14 -17 18 -13 10 4 -8 0 -7 -9 4 -8
10 -20 15 -27 10 -8 -4 -10 -3 -5 4 4 7 1 12 -9 12 -8 0 -18 7 -21 15 -4 8 -9
13 -14 10 -4 -2 -17 7 -28 20 -12 14 -31 25 -42 25 -11 0 -19 6 -17 13 1 6 -4
11 -12 9 -8 -2 -11 3 -8 12 4 9 2 15 -4 13 -6 -1 -18 23 -28 53 -24 76 -93
220 -143 299 -85 135 -299 364 -413 442 -127 87 -294 155 -330 135z m1602
-1848 c-3 -8 -6 -5 -6 6 -1 11 2 17 5 13 3 -3 4 -12 1 -19z"/>
<path d="M4536 8109 c-9 -18 -14 -34 -12 -37 3 -2 12 10 21 28 9 18 14 34 12
37 -3 2 -12 -10 -21 -28z"/>
<path d="M3298 8025 c65 -84 100 -120 108 -112 4 4 -25 40 -66 80 -44 43 -61
56 -42 32z"/>
<path d="M7968 8020 c-89 -22 -153 -53 -224 -106 -134 -100 -189 -209 -201
-394 -10 -164 28 -326 115 -490 59 -113 76 -134 203 -259 96 -96 119 -113 221
-164 137 -70 222 -90 359 -85 90 3 101 6 185 47 161 80 275 231 304 403 27
160 -2 370 -73 517 -68 142 -246 346 -371 426 -189 120 -334 150 -518 105z
m241 -165 c159 -38 334 -167 436 -324 69 -105 78 -124 129 -257 41 -107 65
-251 48 -289 -9 -20 -19 -25 -46 -25 -19 0 -47 -5 -62 -10 -39 -15 -49 -1 -68
98 -38 194 -84 294 -190 408 -76 83 -134 123 -231 160 -93 35 -171 31 -272
-14 -94 -42 -123 -42 -162 3 -36 42 -57 109 -43 140 13 29 116 82 204 105 89
23 172 25 257 5z m50 -429 c81 -42 223 -246 308 -441 25 -58 50 -105 55 -105
6 0 24 12 41 26 38 32 52 16 31 -35 -31 -74 -103 -141 -137 -128 -9 3 -36 48
-60 99 -49 102 -143 240 -226 330 -85 92 -142 114 -254 97 -38 -6 -84 -20
-103 -31 -29 -17 -44 -19 -96 -13 -91 11 -106 18 -113 59 -15 78 18 100 215
140 144 29 285 30 339 2z m-199 -333 c179 -66 233 -114 319 -277 15 -28 33
-61 41 -72 15 -25 7 -54 -15 -54 -19 0 -111 46 -119 59 -16 25 -106 64 -237
101 -153 44 -175 57 -214 125 -28 48 -57 143 -48 157 12 21 173 -2 273 -39z"/>
<path d="M5590 8003 c0 -23 11 -38 31 -45 15 -6 15 -4 2 23 -18 36 -33 46 -33
22z"/>
<path d="M4085 7895 c-16 -8 -23 -14 -15 -14 8 0 29 6 45 14 17 7 23 13 15 13
-8 0 -28 -6 -45 -13z"/>
<path d="M4028 7873 c7 -3 16 -2 19 1 4 3 -2 6 -13 5 -11 0 -14 -3 -6 -6z"/>
<path d="M3908 7863 c18 -2 45 -2 60 0 15 2 0 4 -33 4 -33 0 -45 -2 -27 -4z"/>
<path d="M7368 7541 c-11 -49 -10 -162 3 -221 6 -28 12 -50 13 -48 1 2 -1 71
-4 153 -3 101 -7 139 -12 116z"/>
<path d="M5445 7215 c21 -233 50 -395 72 -395 9 0 12 7 9 18 -8 25 -35 223
-45 326 -6 60 -14 93 -25 105 -16 15 -17 11 -11 -54z"/>
<path d="M5020 7251 c-103 -6 -93 -7 100 -9 118 -1 220 -6 227 -10 6 -4 16
-45 23 -92 13 -102 50 -346 56 -377 3 -17 15 -24 56 -33 120 -25 390 -105 497
-147 64 -25 132 -46 151 -46 39 0 104 36 319 177 69 46 141 91 158 100 32 16
33 16 80 -17 27 -18 71 -46 98 -62 28 -15 72 -48 99 -72 26 -23 70 -57 97 -75
53 -34 58 -49 31 -88 -14 -20 -190 -195 -344 -341 -24 -23 -26 -31 -18 -58 8
-29 49 -94 134 -213 19 -26 60 -113 92 -195 32 -81 62 -153 66 -159 5 -6 45
-15 91 -18 45 -4 129 -18 187 -31 58 -13 137 -29 175 -35 39 -5 81 -13 94 -16
l24 -5 -7 -190 c-4 -105 -11 -201 -16 -214 -7 -20 -23 -26 -107 -45 -54 -12
-111 -25 -128 -30 -16 -5 -75 -14 -130 -20 -56 -6 -123 -16 -150 -23 -46 -11
-52 -16 -75 -62 -14 -27 -35 -77 -45 -110 -11 -33 -40 -89 -64 -125 -25 -36
-68 -100 -98 -143 -29 -43 -53 -87 -53 -97 0 -21 59 -93 60 -73 0 6 -4 15 -10
18 -23 14 -6 55 60 144 75 98 147 231 176 322 9 30 20 57 23 61 4 4 42 14 86
23 132 25 478 114 489 125 7 7 12 93 14 234 3 181 1 225 -11 234 -7 6 -65 18
-128 27 -63 8 -155 23 -205 34 -49 11 -122 23 -162 26 -39 4 -76 13 -80 19 -5
6 -23 54 -41 106 -40 115 -81 199 -131 265 -64 86 -90 129 -90 151 0 14 26 41
82 85 45 35 132 119 195 187 118 128 132 155 96 188 -52 46 -234 179 -273 199
-25 13 -70 41 -100 64 -30 23 -58 41 -62 41 -14 0 -283 -153 -342 -194 -114
-80 -160 -106 -181 -100 -11 3 -63 23 -115 44 -102 41 -327 108 -451 135 l-76
16 -17 147 c-20 169 -42 285 -62 325 -13 24 -20 27 -67 27 -28 0 -81 2 -117 4
-36 2 -117 0 -180 -3z"/>
<path d="M9750 7179 c0 -5 5 -7 10 -4 6 3 10 8 10 11 0 2 -4 4 -10 4 -5 0 -10
-5 -10 -11z"/>
<path d="M4772 7009 c-7 -28 -12 -85 -13 -127 -2 -133 -1 -133 -154 -153 -44
-5 -104 -17 -134 -26 -48 -14 -246 -91 -355 -138 -22 -9 -49 -14 -63 -11 -28
8 -203 111 -288 170 -77 54 -155 99 -161 93 -3 -3 32 -28 78 -56 46 -29 148
-92 228 -141 80 -50 149 -90 154 -90 5 0 66 23 135 51 183 75 366 129 486 144
94 12 98 13 92 41 -2 14 1 86 7 160 7 74 9 134 6 134 -4 0 -12 -23 -18 -51z"/>
<path d="M1130 6923 c0 -23 104 -100 185 -137 22 -10 45 -21 50 -24 27 -14 -9
13 -84 63 -45 30 -98 67 -117 81 -19 15 -34 22 -34 17z"/>
<path d="M2335 6889 c-11 -17 1 -21 15 -4 8 9 8 15 2 15 -6 0 -14 -5 -17 -11z"/>
<path d="M3499 6819 l-24 -20 27 17 c16 9 40 14 57 12 17 -2 28 -1 25 4 -10
15 -62 8 -85 -13z"/>
<path d="M5540 6815 c0 -8 4 -15 10 -15 5 0 7 7 4 15 -4 8 -8 15 -10 15 -2 0
-4 -7 -4 -15z"/>
<path d="M3436 6782 c-3 -5 -34 -26 -68 -46 -35 -20 -86 -58 -114 -84 -28 -26
-41 -40 -30 -31 12 8 67 46 124 84 102 68 123 85 103 85 -5 0 -12 -4 -15 -8z"/>
<path d="M10080 6670 c-9 -6 -10 -10 -3 -10 6 0 15 5 18 10 8 12 4 12 -15 0z"/>
<path d="M7135 6468 c-11 -22 -30 -47 -42 -56 -13 -8 -59 -56 -103 -107 -43
-51 -105 -113 -137 -138 -93 -74 -94 -76 -29 -162 62 -83 128 -211 151 -296
24 -92 30 -95 185 -114 198 -24 369 -54 401 -70 15 -8 30 -23 32 -32 3 -10 4
-126 3 -258 -1 -179 -4 -247 -14 -266 -15 -28 -80 -64 -136 -74 -20 -4 -36
-11 -36 -15 0 -16 -296 -80 -372 -80 -51 0 -68 -14 -94 -75 -9 -22 -29 -69
-46 -105 -17 -36 -34 -75 -39 -87 -4 -12 -31 -54 -60 -93 -48 -66 -51 -73 -38
-96 12 -24 83 -95 223 -225 126 -117 148 -164 104 -226 -32 -43 -134 -127
-253 -206 -55 -37 -117 -81 -137 -98 -48 -41 -125 -50 -166 -19 -15 11 -79 54
-142 96 -63 42 -145 100 -182 130 -67 54 -68 54 -102 40 -19 -8 -63 -32 -98
-53 -41 -24 -93 -45 -144 -56 -74 -17 -105 -27 -146 -48 -10 -5 -55 -16 -100
-25 -46 -8 -92 -17 -103 -19 -19 -4 -23 -20 -43 -152 -12 -81 -24 -172 -27
-202 -9 -83 -28 -119 -72 -137 -32 -14 -82 -16 -340 -13 l-303 4 -9 50 c-6 28
-17 118 -26 200 -25 229 -21 218 -83 231 -29 7 -58 16 -65 22 -6 5 -43 20 -82
32 -38 12 -95 33 -126 46 -31 13 -60 24 -64 24 -13 0 -190 92 -208 108 -16 14
-20 14 -46 -1 -40 -24 -61 -21 -31 4 l25 20 -45 -7 c-72 -11 -139 -41 -225
-103 -44 -32 -96 -67 -116 -79 -81 -49 -57 -52 36 -4 103 53 130 58 80 17 -28
-23 -28 -24 -8 -25 12 0 24 6 26 13 4 7 6 8 6 1 2 -21 -49 -46 -83 -41 -21 3
-42 -2 -66 -16 -19 -12 -40 -22 -47 -23 -7 -1 -23 -15 -37 -30 l-24 -28 -63
33 c-65 33 -252 168 -387 278 l-34 27 7 -80 c3 -43 10 -159 14 -256 7 -169 9
-179 32 -204 29 -32 191 -155 269 -204 30 -19 93 -61 140 -93 338 -228 353
-237 396 -237 38 0 45 -5 92 -59 40 -45 62 -62 101 -75 70 -23 115 -20 161 9
22 14 43 25 48 25 12 0 52 44 52 57 0 6 9 13 20 16 11 3 20 12 20 21 0 9 5 16
11 16 7 0 17 7 24 16 28 38 222 83 239 55 4 -6 22 -11 41 -11 27 0 35 -5 43
-27 7 -18 11 -22 11 -10 1 9 6 17 11 17 6 0 10 -29 10 -67 0 -95 11 -111 109
-160 46 -23 100 -53 120 -66 95 -62 125 -80 251 -151 74 -42 160 -84 190 -92
30 -9 89 -33 130 -54 41 -21 98 -44 127 -51 49 -12 55 -11 130 18 43 17 119
39 168 48 50 9 113 21 141 26 52 10 72 25 109 84 36 56 47 80 55 125 5 25 15
77 23 116 12 64 41 129 73 161 6 7 39 26 73 43 47 24 77 32 129 34 66 3 79 0
192 -44 30 -12 105 -39 166 -60 61 -21 152 -59 203 -84 50 -25 95 -46 101 -46
6 0 35 18 64 40 61 46 78 49 99 17 8 -13 41 -37 73 -54 33 -18 90 -52 128 -76
l69 -44 121 53 c208 93 191 80 192 150 l1 61 -46 23 c-55 26 -218 139 -245
169 -11 11 -24 21 -31 21 -6 0 -37 -18 -68 -41 -32 -22 -82 -51 -113 -65 -31
-14 -65 -35 -75 -47 l-18 -22 -44 43 c-46 45 -93 125 -82 141 3 6 32 13 64 17
39 4 79 18 117 39 l57 33 -28 26 c-16 15 -55 41 -86 57 -63 34 -119 84 -119
106 0 26 40 72 84 98 55 32 67 31 94 -5 27 -35 170 -145 178 -137 4 3 1 59 -6
123 l-13 118 25 20 c14 12 34 27 44 34 10 7 14 10 8 8 -7 -3 -29 8 -49 24 -21
17 -53 40 -72 51 -34 21 -73 83 -73 116 1 55 62 160 108 184 15 8 29 17 32 20
9 11 75 36 127 48 28 7 136 16 240 21 200 9 260 22 310 68 13 12 27 22 32 22
12 0 51 49 51 65 0 8 17 22 38 31 43 18 136 14 170 -7 12 -7 25 -10 29 -5 13
12 5 98 -12 139 -14 33 -14 53 -5 140 19 168 29 219 58 292 28 68 47 85 62 55
65 -127 62 -118 73 -289 9 -143 8 -169 -6 -210 -9 -25 -23 -82 -30 -126 -13
-77 -32 -125 -50 -125 -15 0 -51 23 -69 44 -21 26 -23 15 -3 -23 8 -16 40 -46
71 -67 105 -72 154 -104 160 -104 9 0 78 -33 84 -40 9 -11 84 -37 130 -46 51
-9 220 -8 323 2 62 6 70 9 95 40 17 21 39 36 60 40 17 3 32 12 32 19 0 8 20
15 53 19 78 10 84 11 99 22 7 6 32 16 56 23 24 7 64 28 88 47 25 19 49 34 54
34 4 0 10 10 13 21 4 14 11 20 20 16 10 -4 17 2 20 14 4 16 2 19 -11 14 -9 -3
-2 7 17 24 21 19 31 36 28 45 -4 9 0 31 8 50 17 41 20 70 5 46 -13 -20 -13 -8
0 26 7 18 7 30 0 39 -8 9 -8 15 0 20 5 3 10 12 10 18 0 7 -4 6 -11 -3 -9 -12
-10 -11 -6 7 3 12 0 24 -7 26 -8 3 -7 9 3 21 12 15 12 16 -5 10 -10 -4 -16 -4
-12 1 4 4 2 15 -4 23 -15 17 -34 49 -48 80 -5 13 -19 26 -31 29 -12 4 -18 11
-15 20 3 8 1 11 -4 8 -6 -3 -10 3 -10 14 0 12 -4 21 -10 21 -5 0 -10 7 -10 16
0 8 -4 12 -10 9 -9 -6 -14 10 -13 43 1 6 -4 12 -9 12 -18 0 -58 49 -52 64 3 8
0 17 -5 21 -6 3 -8 11 -5 17 4 7 2 8 -4 4 -7 -4 -12 -4 -12 1 0 4 -18 28 -40
53 -22 24 -40 49 -40 55 0 15 -86 105 -94 98 -3 -4 -6 1 -6 9 0 9 -12 21 -27
26 -33 12 -83 55 -83 71 0 6 -4 11 -10 11 -5 0 -19 22 -31 49 -12 29 -41 69
-69 94 -46 43 -50 44 -99 39 -48 -4 -53 -7 -67 -40 -19 -46 -42 -72 -65 -72
-10 0 -22 -6 -26 -12 -13 -20 -61 -51 -160 -103 -81 -42 -93 -51 -93 -74 0
-14 4 -30 8 -36 4 -6 69 -8 177 -5 94 3 185 2 203 -3 44 -11 59 -44 44 -95
-21 -69 -32 -77 -109 -75 -66 1 -266 53 -287 74 -16 15 -26 10 -26 -14 0 -17
10 -28 35 -40 19 -9 69 -45 111 -79 42 -35 95 -77 118 -94 62 -46 69 -58 61
-101 -4 -24 -19 -48 -43 -71 -33 -30 -41 -33 -77 -27 -22 4 -59 7 -82 7 -40 1
-43 3 -53 37 -5 20 -10 45 -10 55 0 11 -8 29 -19 40 -10 12 -31 53 -46 91 -15
39 -36 89 -48 113 -19 39 -24 42 -47 36 -28 -9 -75 -8 -135 1 -37 6 -44 3 -76
-27 -20 -18 -52 -63 -72 -100 -31 -56 -47 -73 -104 -108 -66 -42 -129 -68
-117 -49 3 6 16 14 28 19 15 7 9 8 -28 7 -48 -2 -48 -2 -75 45 -22 40 -24 50
-14 67 28 45 -12 84 -97 99 -58 9 -216 100 -398 227 -25 18 -61 88 -62 120 0
11 -3 63 -6 115 l-5 95 43 23 c78 42 111 81 127 153 9 38 7 48 -17 88 -45 78
-241 261 -357 333 -96 60 -227 152 -249 177 -15 17 -19 46 -24 190 l-7 170
-20 -41z m2030 -2008 c-3 -5 -15 -10 -26 -10 -10 0 -19 5 -19 10 0 6 12 10 26
10 14 0 23 -4 19 -10z"/>
<path d="M4955 6344 c-192 -26 -359 -62 -425 -91 -30 -14 -85 -36 -121 -49
-128 -47 -275 -138 -404 -252 -76 -67 -197 -213 -229 -279 -17 -32 -37 -69
-46 -83 -22 -33 -37 -76 -66 -193 -47 -192 -28 -343 71 -553 63 -133 115 -202
246 -329 208 -201 475 -336 763 -385 189 -32 312 -40 438 -29 518 45 901 234
1140 564 100 138 139 215 168 333 20 81 22 111 18 225 -8 207 -47 304 -215
538 -125 174 -310 315 -594 457 -140 69 -149 72 -299 97 -145 25 -370 40 -445
29z m405 -98 c229 -41 450 -123 605 -225 95 -62 231 -186 280 -256 25 -34 45
-66 45 -70 0 -4 16 -30 36 -58 47 -65 59 -95 90 -225 24 -96 26 -121 21 -242
-4 -121 -9 -146 -39 -235 -48 -136 -81 -198 -147 -275 -79 -91 -161 -175 -161
-165 0 5 -6 2 -12 -7 -23 -27 -184 -137 -254 -172 -100 -51 -358 -132 -494
-156 -182 -32 -365 -29 -615 11 -348 57 -625 224 -818 495 -45 63 -96 174
-132 285 -38 118 -45 277 -17 409 40 195 157 378 349 546 222 194 446 294 780
349 108 18 359 13 483 -9z"/>
<path d="M4885 6180 c-16 -4 -88 -21 -160 -38 -71 -17 -166 -46 -210 -64 -114
-49 -350 -208 -308 -208 5 0 28 13 49 28 56 41 68 47 60 33 -4 -6 -43 -36 -86
-66 -42 -30 -83 -62 -90 -70 -7 -8 -17 -15 -23 -15 -6 0 5 17 24 37 47 51 8
21 -60 -47 -61 -59 -94 -99 -73 -86 29 17 9 -26 -30 -66 -23 -24 -48 -54 -56
-68 -16 -29 -54 -151 -72 -229 -18 -77 -8 -280 18 -351 83 -233 267 -457 478
-580 l68 -40 22 63 c12 34 29 76 38 92 9 17 16 38 16 49 0 19 60 139 72 144 5
2 8 10 8 17 0 17 33 75 43 75 4 0 12 11 17 24 10 26 36 48 230 191 127 93 196
126 207 98 3 -8 2 -60 -2 -116 -4 -56 -7 -127 -6 -157 1 -30 4 -180 7 -332 l5
-278 38 0 38 0 -1 253 c-1 225 1 256 17 290 20 41 20 42 -5 262 -6 56 -8 113
-5 127 11 41 64 85 157 130 47 22 93 44 102 49 28 14 139 37 218 43 119 11
347 -16 370 -43 3 -4 24 -19 47 -34 24 -15 70 -60 102 -100 93 -114 103 -125
93 -102 -5 11 -10 64 -11 118 -1 54 -4 104 -7 110 -2 7 1 35 7 62 6 28 12 64
12 80 1 17 6 33 11 36 4 4 -11 44 -35 90 -53 103 -170 228 -297 319 -82 59
-290 169 -357 189 -16 5 -61 21 -99 35 -38 14 -94 28 -125 32 -31 3 -85 10
-121 15 -77 10 -293 10 -335 -1z m-345 -125 c-33 -19 -50 -18 -26 0 11 8 27
15 35 15 10 -1 7 -6 -9 -15z"/>
<path d="M3280 6327 c0 -2 15 -16 33 -33 l32 -29 -29 33 c-28 30 -36 37 -36
29z"/>
<path d="M3407 5991 c-24 -27 -50 -62 -58 -78 -8 -15 -26 -48 -41 -73 -35 -59
-88 -204 -88 -241 0 -22 -6 -32 -23 -38 -43 -16 -211 -50 -307 -61 -116 -14
-240 -44 -251 -61 -10 -17 0 -32 14 -21 7 5 57 17 112 27 55 9 154 27 220 40
66 12 146 26 177 29 65 8 73 15 82 74 3 23 9 61 13 85 4 26 18 56 39 80 18 21
39 61 48 88 9 27 41 81 71 120 30 39 55 73 55 75 0 15 -24 -3 -63 -45z"/>
<path d="M10110 6000 c0 -5 5 -10 10 -10 6 0 10 5 10 10 0 6 -4 10 -10 10 -5
0 -10 -4 -10 -10z"/>
<path d="M3130 5820 c8 -5 20 -10 25 -10 6 0 3 5 -5 10 -8 5 -19 10 -25 10 -5
0 -3 -5 5 -10z"/>
<path d="M1110 5797 c-30 -8 -100 -36 -155 -63 -85 -41 -114 -62 -191 -139
-119 -119 -137 -161 -138 -325 0 -106 2 -122 32 -199 59 -154 125 -227 265
-291 186 -84 346 -92 517 -26 132 51 231 117 290 192 17 20 27 40 25 45 -6 9
-65 -9 -65 -21 0 -5 -9 -12 -20 -15 -11 -4 -31 -16 -44 -28 -29 -26 -120 -73
-236 -122 -71 -30 -101 -37 -183 -42 -105 -6 -142 0 -235 43 -29 13 -58 24
-65 24 -17 0 -91 78 -110 115 -9 17 -23 60 -32 95 -18 70 -15 169 9 237 l12
35 19 -28 c10 -16 42 -52 71 -80 44 -42 62 -53 96 -57 58 -6 143 23 226 77 37
24 99 64 138 90 56 36 75 55 88 86 43 107 23 148 -89 185 -76 25 -95 20 -95
-22 0 -49 -30 -84 -90 -104 -19 -7 -68 -37 -108 -67 -56 -41 -84 -56 -117 -60
-42 -4 -45 -3 -55 24 -21 53 8 136 64 187 43 39 220 122 290 137 143 29 334
-24 461 -129 49 -40 60 -56 111 -154 14 -27 28 -47 30 -44 12 11 -41 137 -82
199 -67 99 -183 180 -319 224 -97 31 -234 40 -315 21z"/>
<path d="M8866 5548 c-18 -78 -36 -302 -25 -319 9 -15 123 74 147 115 12 19
37 45 56 58 20 13 36 28 36 34 0 10 -172 176 -189 182 -4 1 -15 -30 -25 -70z"/>
<path d="M1987 5525 c26 -53 43 -69 43 -42 0 12 -57 97 -66 97 -2 0 8 -25 23
-55z"/>
<path d="M8480 5400 c0 -46 168 -240 208 -240 14 0 16 60 6 159 -6 50 -10 61
-23 56 -9 -2 -29 2 -46 11 -40 21 -145 31 -145 14z"/>
<path d="M2090 5390 c11 -7 15 -28 15 -77 0 -95 -9 -123 -40 -123 -21 0 -25 5
-26 33 0 23 -5 13 -19 -40 -44 -167 -120 -303 -231 -413 -124 -122 -346 -211
-559 -225 -47 -3 -99 -8 -116 -11 -20 -4 -36 -1 -45 9 -8 7 -21 16 -29 20 -13
5 -13 6 0 7 8 0 -27 12 -78 25 -89 24 -240 92 -269 121 -22 21 -33 17 -33 -14
0 -16 8 -32 19 -39 11 -7 22 -29 26 -55 4 -24 16 -60 26 -80 21 -42 25 -83 8
-94 -6 -3 -40 22 -77 57 -54 52 -60 56 -33 22 79 -103 203 -189 456 -315 33
-17 76 -43 96 -59 20 -16 39 -29 42 -29 3 0 44 -18 90 -40 46 -22 106 -47 133
-56 26 -9 71 -27 98 -39 98 -46 151 -55 280 -51 156 4 209 24 303 109 37 33
74 66 82 72 50 38 218 220 237 257 17 31 29 77 40 143 11 64 15 75 29 75 8 0
15 6 15 13 0 8 4 7 10 -3 7 -11 10 -5 11 25 1 22 6 -7 10 -65 5 -58 13 -115
19 -128 5 -12 32 -33 62 -46 29 -14 87 -40 129 -59 42 -19 103 -52 135 -73
113 -72 182 -105 207 -99 13 4 74 57 135 118 l112 112 -61 110 c-60 110 -96
187 -119 258 -13 42 -3 38 -170 62 -185 26 -361 65 -412 91 -27 13 -48 21 -49
17 0 -5 0 -46 0 -93 l0 -85 -13 60 c-8 33 -14 54 -15 47 -3 -31 -80 53 -126
138 -11 19 -26 43 -34 53 -8 9 -10 17 -5 17 5 0 4 4 -2 8 -6 4 -25 37 -42 73
-24 51 -47 81 -98 125 -36 33 -77 78 -91 102 -14 23 -30 42 -36 42 -7 0 -5 -5
3 -10z"/>
<path d="M8322 5178 c0 -17 -7 -35 -14 -39 -8 -6 3 -9 29 -9 62 0 76 -18 58
-77 -8 -25 -20 -50 -27 -55 -7 -5 -58 -7 -113 -4 -110 5 -139 -1 -125 -24 5
-8 45 -51 90 -96 l81 -82 44 38 c27 23 72 47 122 65 43 15 86 30 96 34 15 5
18 20 20 84 2 45 -2 82 -8 86 -5 5 -53 23 -105 41 -52 18 -102 39 -110 45 -32
25 -37 24 -38 -7z"/>
<path d="M8710 5040 c-22 -22 -27 -72 -7 -88 6 -5 22 -13 34 -16 28 -9 63 24
63 59 0 28 -32 65 -55 65 -8 0 -24 -9 -35 -20z"/>
<path d="M2632 5003 c4 -24 129 -65 332 -109 160 -35 229 -41 94 -9 -159 39
-383 106 -398 120 -22 20 -32 19 -28 -2z"/>
<path d="M1860 4885 c-11 -13 -10 -14 4 -9 9 3 16 10 16 15 0 13 -6 11 -20 -6z"/>
<path d="M3226 4835 c4 -8 8 -15 10 -15 2 0 4 7 4 15 0 8 -4 15 -10 15 -5 0
-7 -7 -4 -15z"/>
<path d="M1790 4799 c0 -5 5 -7 10 -4 6 3 10 8 10 11 0 2 -4 4 -10 4 -5 0 -10
-5 -10 -11z"/>
<path d="M630 4746 c0 -8 5 -18 10 -21 6 -3 10 3 10 14 0 12 -4 21 -10 21 -5
0 -10 -6 -10 -14z"/>
<path d="M1725 4750 c-3 -5 -2 -10 4 -10 5 0 13 5 16 10 3 6 2 10 -4 10 -5 0
-13 -4 -16 -10z"/>
<path d="M1662 4710 c-19 -12 -64 -33 -100 -47 -36 -15 -61 -28 -55 -30 15 -5
163 58 163 69 0 5 4 7 9 4 5 -3 14 1 21 9 17 21 1 19 -38 -5z"/>
<path d="M8415 4660 c-3 -6 1 -7 9 -4 18 7 21 14 7 14 -6 0 -13 -4 -16 -10z"/>
<path d="M1228 4573 c23 -2 59 -2 80 0 20 2 1 4 -43 4 -44 0 -61 -2 -37 -4z"/>
<path d="M3466 4359 c-9 -16 -22 -29 -27 -29 -18 0 -359 -343 -359 -361 0 -9
17 -30 38 -46 53 -42 74 -51 30 -14 -21 18 -38 40 -38 49 0 9 90 103 200 207
110 105 200 195 200 201 0 25 -28 21 -44 -7z"/>
<path d="M6816 4168 c16 -18 59 -65 97 -104 37 -40 67 -81 67 -92 0 -22 -42
-62 -181 -170 -176 -138 -208 -166 -196 -174 22 -14 35 -8 104 48 37 31 106
83 153 115 47 33 105 77 129 98 38 34 43 43 37 68 -8 28 -210 243 -230 243 -5
0 3 -15 20 -32z"/>
<path d="M6010 3904 c-41 -14 -109 -38 -150 -54 -41 -16 -111 -39 -155 -51
-44 -12 -92 -31 -106 -40 -26 -18 -79 -34 -151 -44 -41 -6 -42 -9 -57 -100
-29 -184 -65 -353 -77 -372 -14 -23 -18 -23 -237 -24 -124 -1 -209 -5 -192 -9
17 -4 126 -8 243 -9 l212 -1 19 30 c16 26 92 376 91 421 0 27 26 41 113 59
182 39 546 168 577 205 18 22 -47 16 -130 -11z"/>
<path d="M3220 3858 c0 -3 28 -25 63 -49 34 -23 82 -60 107 -80 40 -32 131
-86 105 -62 -32 30 -275 198 -275 191z"/>
<path d="M4280 3827 c8 -9 161 -69 166 -65 2 3 -27 16 -64 31 -94 36 -108 41
-102 34z"/>
<path d="M8418 3630 c2 -108 7 -170 13 -170 6 0 44 18 85 40 42 22 91 47 110
55 33 14 34 13 48 -13 7 -15 17 -51 21 -80 7 -52 6 -54 -30 -87 -20 -19 -48
-38 -63 -41 -43 -9 -101 -36 -139 -64 l-36 -27 1 -183 c1 -166 3 -185 19 -193
10 -5 27 -18 38 -28 19 -17 21 -17 56 0 76 37 257 111 273 111 19 0 23 17 31
130 10 132 26 194 58 224 15 14 27 32 27 40 0 19 -177 191 -271 263 -42 32
-111 88 -154 126 -43 37 -81 67 -84 67 -3 0 -5 -76 -3 -170z"/>
<path d="M4509 3739 c30 -10 88 -26 130 -34 42 -8 86 -17 98 -20 12 -3 23 -15
26 -28 3 -16 5 -13 6 11 1 29 -2 32 -26 32 -16 0 -82 14 -148 30 -137 34 -164
37 -86 9z"/>
<path d="M8140 3590 c0 -5 -3 -9 -7 -7 -5 1 -10 -1 -13 -4 -5 -7 119 -108 133
-109 10 0 9 38 -3 60 -5 10 -31 30 -56 44 -53 29 -54 30 -54 16z"/>
<path d="M1428 3580 c-80 -14 -148 -40 -272 -103 -107 -54 -129 -70 -205 -148
-79 -81 -153 -191 -138 -206 11 -10 33 14 58 64 46 93 212 235 354 305 119 60
249 88 400 88 85 0 121 -6 227 -35 70 -20 143 -42 162 -50 53 -22 44 -9 -15
20 -93 48 -189 66 -364 70 -88 2 -181 0 -207 -5z"/>
<path d="M7769 3508 c8 -23 28 -224 34 -342 l2 -48 160 -89 c201 -113 219
-121 250 -113 l25 6 0 164 0 164 -86 87 c-63 64 -82 79 -70 55 20 -39 66 -194
66 -222 0 -50 -47 -35 -82 28 -40 72 -82 121 -201 232 -68 65 -104 93 -98 78z"/>
<path d="M1435 3475 c-69 -13 -200 -61 -281 -103 -80 -41 -247 -234 -280 -323
-9 -26 -18 -91 -21 -160 -5 -102 -3 -124 17 -185 54 -163 137 -252 327 -348
162 -81 457 -97 656 -36 85 26 227 112 304 184 108 100 167 251 167 422 0 88
-1 95 -43 179 -31 62 -63 109 -114 162 -62 65 -85 82 -182 128 -181 88 -368
115 -550 80z m329 -106 c144 -18 336 -100 424 -182 54 -51 95 -141 100 -222 5
-88 -7 -134 -58 -212 -46 -70 -189 -218 -253 -261 -65 -45 -216 -109 -281
-121 -122 -22 -369 -2 -479 39 -105 40 -205 151 -233 262 -45 175 25 402 163
528 70 64 120 93 224 131 128 47 237 57 393 38z"/>
<path d="M4780 3382 c0 -36 22 -137 32 -147 10 -10 10 -7 -12 108 -11 57 -20
74 -20 39z"/>
<path d="M9025 3293 c-3 -27 -11 -82 -16 -124 -7 -48 -8 -83 -2 -93 8 -15 11
-15 34 2 13 10 50 33 81 51 32 18 60 37 63 42 6 9 -131 169 -146 169 -4 0 -10
-21 -14 -47z"/>
<path d="M2472 3153 c7 -16 20 -37 29 -48 10 -11 21 -33 25 -50 4 -16 10 -34
14 -40 9 -13 21 -75 14 -75 -3 0 -11 15 -19 33 -14 31 -14 29 -15 -56 0 -62
-3 -86 -11 -81 -7 4 -9 0 -5 -14 12 -36 -73 -230 -117 -269 -14 -13 -18 -13
-12 -3 8 13 7 13 -9 0 -27 -21 -111 -134 -108 -143 1 -5 -2 -5 -8 -2 -7 4 -14
-2 -17 -14 -3 -12 -10 -21 -15 -21 -6 0 -27 -18 -47 -40 -86 -95 -379 -213
-519 -209 -26 1 -14 5 38 14 41 7 98 19 125 28 69 20 207 78 201 84 -2 3 -19
-2 -38 -10 -45 -21 -195 -63 -313 -88 -102 -21 -321 2 -465 51 -185 61 -381
200 -440 310 -19 36 -21 18 -4 -60 10 -47 14 -116 13 -187 -3 -132 -4 -129
114 -209 39 -27 81 -57 91 -66 11 -10 47 -32 80 -49 83 -44 276 -170 276 -181
0 -5 5 -6 10 -3 6 3 13 -1 16 -9 3 -9 13 -16 20 -16 8 0 17 -7 20 -15 4 -8 11
-12 17 -8 6 4 8 0 5 -9 -4 -10 0 -14 15 -13 12 1 30 -6 41 -16 10 -10 23 -16
27 -13 4 2 10 0 14 -6 4 -6 11 -8 16 -5 5 4 12 -1 15 -9 3 -9 12 -16 20 -16 8
0 23 -9 34 -20 12 -12 25 -18 30 -15 6 4 10 0 10 -7 0 -7 12 -14 26 -15 15 0
30 -6 34 -13 4 -6 10 -11 14 -11 22 3 37 -1 50 -15 11 -10 16 -11 16 -3 0 8 7
5 20 -6 11 -10 20 -14 20 -10 0 4 8 1 18 -8 10 -10 22 -14 25 -10 4 3 7 1 7
-6 0 -7 6 -11 14 -8 8 3 31 -5 50 -18 22 -15 36 -20 36 -12 0 7 5 4 11 -5 5
-10 17 -18 25 -18 10 0 12 -5 8 -12 -5 -9 -2 -8 9 1 16 12 17 12 10 -5 -6 -17
-5 -18 11 -4 16 12 20 12 30 -1 6 -9 16 -14 22 -12 7 2 19 -3 28 -12 10 -10
16 -12 16 -4 0 9 4 8 15 -1 12 -10 18 -10 31 1 13 10 17 10 24 0 5 -9 10 -10
14 -3 4 6 22 10 41 8 19 -1 35 1 35 5 0 4 16 10 35 13 19 4 35 11 35 16 0 6 4
10 10 10 20 0 202 145 342 273 29 26 58 47 65 47 7 0 25 18 39 40 15 22 30 40
35 40 4 0 11 17 15 38 3 20 14 48 22 62 67 103 89 173 102 325 l12 135 -28 58
c-50 99 -102 172 -186 262 -20 21 -44 50 -53 64 -10 14 -21 24 -25 21 -5 -3
-24 10 -43 29 -27 26 -38 48 -47 92 -7 33 -22 75 -32 94 -20 35 -128 180 -134
180 -2 0 2 -12 8 -27z"/>
<path d="M9307 3152 c-3 -15 -3 -47 0 -70 4 -27 1 -47 -8 -58 -17 -21 -90 -57
-171 -83 -99 -33 -102 -42 -25 -85 97 -54 140 -89 162 -131 l19 -37 -33 -30
c-54 -48 -73 -41 -303 114 l-57 39 -153 -83 -153 -84 -3 -38 c-4 -49 8 -63
128 -142 52 -35 114 -77 136 -94 l41 -32 134 62 c74 34 138 66 144 71 14 14
55 11 61 -6 3 -8 14 -17 25 -20 21 -7 34 -44 25 -73 -4 -11 -35 -34 -70 -52
-35 -17 -79 -47 -97 -66 l-33 -34 24 -18 c13 -9 50 -30 83 -47 76 -38 112 -94
91 -137 -8 -15 -23 -32 -33 -38 -28 -15 -79 -12 -88 4 -4 8 -28 23 -53 34 -25
11 -58 34 -74 51 -53 56 -68 33 -47 -76 21 -108 21 -132 -4 -161 l-23 -26 -37
19 c-58 31 -85 83 -101 194 -8 53 -14 114 -14 136 0 39 -3 43 -66 85 -36 25
-109 71 -162 102 -54 32 -103 66 -110 77 -12 17 -16 18 -40 5 -15 -8 -37 -14
-49 -14 -12 0 -26 -8 -31 -17 -6 -10 -12 -88 -14 -174 l-4 -155 76 -51 c41
-28 89 -58 107 -67 17 -9 41 -28 53 -43 30 -38 24 -106 -15 -157 -28 -36 -55
-48 -55 -22 0 19 -178 158 -192 150 -7 -5 -9 -49 -6 -136 5 -122 4 -130 -16
-144 -11 -8 -28 -14 -37 -14 -17 0 -29 -27 -29 -66 0 -21 -38 -64 -57 -64 -7
0 -14 8 -17 18 -9 30 -10 254 -1 356 l8 98 -24 -7 c-13 -4 -35 -19 -49 -35
-14 -15 -44 -40 -68 -54 -24 -15 -45 -33 -49 -41 -3 -8 -11 -15 -18 -15 -17 0
-65 110 -65 148 0 28 8 36 84 82 46 27 109 62 140 76 l56 25 0 165 0 165 -27
24 c-16 13 -35 24 -43 24 -8 0 -80 -29 -160 -64 l-145 -64 3 -93 c4 -103 -13
-204 -47 -280 -27 -59 -46 -78 -77 -78 -34 0 -38 27 -30 209 4 86 4 164 1 173
-6 15 -12 13 -55 -13 -26 -16 -62 -34 -79 -40 -17 -6 -29 -15 -26 -20 6 -9
-66 -49 -90 -49 -19 0 -19 -8 0 -53 19 -46 19 -149 1 -186 -13 -25 -13 -28 6
-40 11 -6 50 -21 86 -32 84 -26 145 -61 172 -99 35 -50 176 -147 303 -210 66
-33 126 -60 132 -60 12 0 97 -74 194 -170 31 -30 68 -64 82 -75 56 -44 91 -67
95 -62 3 3 17 -6 31 -19 14 -13 28 -23 32 -22 3 1 22 -5 41 -14 19 -8 52 -21
73 -28 20 -8 37 -17 37 -21 0 -3 18 -9 40 -13 22 -3 40 -10 40 -14 0 -4 12 -8
28 -9 124 -9 138 -9 155 5 9 8 17 12 17 9 0 -4 9 2 20 13 11 11 20 25 20 31 0
5 5 7 10 4 6 -3 10 1 10 9 0 9 5 16 10 16 6 0 10 11 10 25 0 14 5 25 10 25 12
0 80 141 80 165 0 9 6 18 14 21 8 3 12 12 10 19 -3 7 0 16 7 21 8 4 10 3 5 -4
-4 -7 -3 -12 3 -12 5 0 12 4 16 9 3 6 20 4 41 -5 19 -8 39 -12 43 -9 5 3 11
-2 15 -10 3 -8 12 -15 21 -15 8 0 15 -5 15 -12 0 -6 3 -9 6 -5 6 6 83 -32 110
-54 6 -5 14 -6 17 -2 4 3 19 -6 33 -20 15 -15 31 -27 36 -27 5 0 6 -5 2 -12
-4 -6 -3 -8 4 -4 12 7 63 -13 74 -29 4 -5 8 -6 8 -1 0 5 6 4 13 -1 6 -6 22 -9
35 -8 12 1 22 -2 22 -6 0 -25 156 -12 176 16 6 8 14 12 18 8 4 -4 11 -1 17 7
8 13 10 13 19 0 8 -13 10 -12 10 3 0 9 7 17 15 17 8 0 23 9 34 21 11 12 24 19
29 15 5 -3 15 6 22 20 10 18 16 21 22 12 6 -10 8 -10 8 0 0 6 6 12 14 12 8 0
17 7 20 16 10 26 6 30 -9 10 -8 -11 -15 -15 -15 -9 0 12 30 39 39 36 3 -2 6 3
6 10 0 6 6 18 13 25 14 16 16 36 3 27 -13 -7 -6 27 11 57 21 38 33 81 33 115
0 17 2 31 5 31 19 -1 23 4 10 13 -13 9 -13 10 1 6 12 -4 18 2 22 21 3 15 1 28
-4 30 -5 2 -9 10 -9 18 0 9 5 12 10 9 14 -9 12 8 -2 24 -11 11 -10 13 0 7 7
-4 15 0 19 10 6 16 7 16 13 -1 6 -17 7 -17 12 3 4 12 2 22 -3 22 -5 0 -9 4 -9
10 0 5 3 9 8 9 19 -3 26 2 12 11 -12 7 -12 12 -2 22 6 6 12 26 11 43 l-1 30
-9 -33 c-6 -19 -14 -30 -20 -26 -8 5 -8 8 0 13 6 4 12 24 13 44 2 20 6 37 11
37 13 0 7 16 -15 40 -15 16 -18 25 -10 28 7 2 12 12 12 23 0 13 -5 17 -16 12
-13 -5 -15 1 -13 30 2 20 -1 40 -5 44 -5 4 -6 2 -2 -4 4 -7 2 -13 -4 -13 -6 0
-13 14 -17 31 -6 30 -7 31 -21 13 -13 -16 -14 -17 -9 -2 6 17 -28 89 -45 96
-4 2 -8 10 -8 18 0 9 -4 13 -8 10 -5 -3 -15 6 -22 19 -7 13 -17 22 -22 19 -4
-3 -8 3 -8 13 0 14 -2 15 -9 5 -6 -10 -10 -8 -14 8 -3 12 -10 19 -15 16 -5 -3
-15 13 -22 35 -7 22 -18 38 -24 36 -6 -2 -24 7 -39 20 -16 13 -33 21 -38 18
-5 -4 -6 1 -3 10 4 9 2 15 -4 13 -6 -2 -34 19 -64 47 -29 27 -56 49 -59 48 -4
-1 -13 11 -19 28 -10 22 -15 27 -21 17 -6 -10 -9 -8 -9 6 0 11 -3 16 -6 13
-10 -9 -64 32 -61 46 1 7 -6 11 -15 9 -10 -2 -18 2 -18 8 0 17 -50 63 -51 48
-3 -32 -17 62 -24 150 -5 76 -12 106 -31 139 -23 39 -134 143 -153 143 -5 0
-11 -13 -14 -28z m-210 -1834 c-3 -8 -6 -5 -6 6 -1 11 2 17 5 13 3 -3 4 -12 1
-19z"/>
<path d="M8234 2776 c-40 -18 -74 -62 -73 -95 2 -78 59 -141 128 -141 46 0
116 32 130 58 20 38 13 98 -15 132 -49 58 -107 73 -170 46z"/>
<path d="M3829 2602 c-24 -26 -125 -115 -224 -196 -99 -82 -212 -179 -251
-215 -166 -155 -292 -382 -310 -556 -10 -99 25 -236 85 -327 48 -74 141 -167
203 -202 31 -18 30 -17 -12 25 -90 88 -165 279 -145 369 l7 31 41 -44 c35 -37
51 -46 90 -51 98 -15 156 29 176 135 7 35 23 84 36 109 32 62 145 169 230 217
64 36 72 43 89 91 17 48 17 54 2 76 -9 14 -58 49 -111 78 -114 64 -115 58 36
170 57 43 125 96 151 118 40 35 50 39 66 29 29 -18 313 -429 383 -554 21 -38
39 -66 39 -61 0 16 -91 178 -149 266 -32 47 -108 157 -170 245 -62 88 -131
190 -153 228 -22 37 -46 67 -53 67 -7 0 -32 -22 -56 -48z m-160 -448 c12 -15
21 -34 21 -42 0 -9 -58 -74 -130 -144 -140 -138 -170 -183 -189 -283 -7 -33
-17 -73 -23 -88 -19 -50 -67 -61 -112 -26 -21 16 -26 29 -26 64 0 53 44 197
74 241 54 80 242 259 299 285 55 24 62 24 86 -7z"/>
<path d="M7300 2542 c0 -5 7 -29 15 -52 8 -23 15 -62 15 -86 0 -44 0 -44 23
-30 12 7 59 26 105 41 45 15 82 30 82 34 0 4 -37 26 -82 49 -85 41 -158 62
-158 44z"/>
<path d="M2070 2285 c-14 -8 -20 -14 -15 -14 6 0 21 6 35 14 14 8 21 14 15 14
-5 0 -21 -6 -35 -14z"/>
<path d="M5075 2218 c-9 -32 -19 -636 -11 -689 4 -24 14 -53 22 -64 15 -20 15
-20 35 5 20 23 20 35 17 370 -4 348 -9 400 -42 400 -7 0 -17 -10 -21 -22z"/>
<path d="M6078 2208 c-106 -10 -211 -48 -310 -112 -87 -57 -121 -89 -181 -169
-66 -88 -95 -283 -62 -411 101 -388 569 -553 982 -346 134 68 217 148 273 264
88 184 79 307 -34 499 -60 101 -193 196 -344 246 -76 26 -219 38 -324 29z
m195 -163 c142 -30 278 -121 330 -220 24 -46 34 -184 17 -244 -19 -69 -176
-233 -265 -276 -50 -25 -74 -30 -155 -33 -304 -13 -492 128 -494 368 -1 130
53 244 147 308 148 103 266 130 420 97z m361 -729 c-3 -8 -1 -17 5 -21 6 -3
11 -2 11 3 0 6 7 13 16 16 13 5 12 2 -3 -17 -10 -13 -22 -25 -27 -28 -5 -2
-24 -18 -43 -36 -46 -42 -71 -48 -65 -17 2 13 11 24 18 24 8 0 14 8 14 18 0
14 47 57 77 71 1 1 0 -5 -3 -13z"/>
<path d="M6148 1935 c-3 -3 -30 -12 -61 -20 -72 -19 -120 -49 -202 -128 -64
-60 -66 -64 -71 -122 -5 -54 -2 -66 28 -125 35 -68 73 -103 158 -141 121 -55
322 -23 425 67 17 14 25 24 19 20 -16 -8 -66 126 -59 157 19 72 96 71 128 -3
11 -23 12 -22 15 23 2 34 -3 61 -18 93 -24 49 -88 109 -127 118 -13 4 -53 20
-87 36 -57 27 -133 40 -148 25z m103 -302 c11 -30 -1 -83 -23 -97 -11 -7 -29
-6 -60 3 -23 7 -49 15 -55 17 -16 4 -17 28 -2 57 24 45 36 52 84 49 38 -3 48
-8 56 -29z"/>
<path d="M6600 1275 c0 -8 2 -15 4 -15 2 0 6 7 10 15 3 8 1 15 -4 15 -6 0 -10
-7 -10 -15z"/>
<path d="M4496 1952 c63 -124 78 -162 91 -237 15 -89 14 -115 -14 -255 -4 -21
-3 -22 7 -10 10 13 11 12 6 -3 -3 -10 -6 -24 -6 -30 0 -8 -3 -8 -9 1 -5 9 -15
-6 -29 -46 -41 -112 -154 -237 -294 -327 -86 -54 -98 -70 -22 -28 73 40 155
105 215 170 58 64 49 47 -19 -35 -52 -63 -194 -158 -299 -202 -130 -54 -268
-80 -418 -78 l-130 1 153 7 c84 4 155 10 158 13 3 2 -57 5 -133 6 -96 0 -166
7 -228 20 -84 18 -123 21 -76 6 12 -3 21 -11 21 -16 0 -5 9 -9 20 -9 66 0 102
-70 59 -116 -12 -13 -19 -24 -15 -24 4 0 -2 -9 -13 -21 -27 -30 -133 -51 -159
-33 -11 7 -22 11 -25 7 -4 -3 -9 2 -13 11 -3 9 -12 16 -20 16 -17 0 -80 39
-111 69 -43 41 -37 20 7 -25 51 -52 175 -137 269 -184 69 -34 273 -158 281
-170 3 -4 23 -15 45 -26 22 -10 43 -23 47 -28 4 -6 8 -7 8 -2 0 5 8 2 18 -6
26 -23 149 -79 184 -83 16 -3 36 -10 44 -16 8 -6 14 -8 14 -4 0 4 6 2 13 -4 8
-6 17 -8 20 -4 4 3 7 1 7 -6 0 -6 6 -11 13 -9 6 1 23 -4 35 -11 13 -7 35 -10
48 -7 15 4 24 2 24 -5 0 -6 7 -9 15 -5 8 3 15 1 15 -5 0 -6 4 -8 9 -4 5 3 12
1 16 -5 3 -5 17 -10 31 -10 17 0 23 -4 18 -12 -6 -10 -4 -10 7 -1 14 14 53 18
46 6 -5 -8 157 -8 203 0 14 2 35 9 48 16 16 9 22 9 22 0 0 -6 9 -1 21 12 11
13 18 17 14 9 -4 -9 0 -7 9 4 8 10 19 16 24 13 4 -3 20 5 35 19 14 13 30 24
35 24 5 0 12 10 15 22 4 12 9 20 12 17 3 -4 32 20 64 52 32 33 63 59 67 59 8
1 59 95 59 109 0 3 5 13 10 21 9 14 16 51 31 165 4 28 14 59 23 69 9 11 10 16
4 12 -14 -8 -18 6 -6 18 9 9 12 50 12 166 0 94 -7 147 -20 156 -5 3 -9 14 -9
25 0 28 -78 144 -169 249 -17 19 -45 54 -63 77 -18 23 -36 42 -40 42 -5 1 -16
9 -26 19 -10 9 -37 33 -60 53 -23 20 -42 40 -42 43 0 14 -83 137 -99 145 -9 5
-29 36 -46 68 -38 75 -127 233 -131 233 -1 0 31 -67 72 -148z m59 -599 c-9
-15 -13 -19 -10 -8 4 11 10 29 13 40 3 11 7 14 9 8 3 -7 -3 -24 -12 -40z m-24
-56 c-10 -9 -11 -8 -5 6 3 10 9 15 12 12 3 -3 0 -11 -7 -18z"/>
<path d="M7640 2050 c0 -5 5 -10 11 -10 5 0 7 5 4 10 -3 6 -8 10 -11 10 -2 0
-4 -4 -4 -10z"/>
<path d="M6895 1893 c19 -40 41 -100 49 -133 8 -33 22 -68 32 -77 17 -17 18
-17 10 2 -4 11 -17 49 -28 85 -22 69 -56 142 -83 175 -9 11 0 -13 20 -52z"/>
<path d="M8532 1795 c-26 -30 -27 -36 -7 -29 16 7 40 43 33 50 -3 2 -14 -7
-26 -21z"/>
<path d="M6993 1634 c0 -14 -6 -31 -12 -37 -8 -8 -11 -2 -12 24 -1 21 -8 -1
-20 -59 -17 -87 -30 -119 -107 -252 -10 -18 -5 -15 18 10 l33 35 -19 -34 c-11
-18 -45 -62 -78 -97 -46 -52 -63 -63 -80 -59 -15 5 -17 4 -7 -3 25 -18 -99
-95 -230 -143 -77 -28 -95 -30 -251 -35 -182 -5 -242 2 -366 42 -141 47 -216
89 -288 162 l-67 67 27 -49 c14 -27 26 -56 26 -64 0 -9 13 -30 29 -46 93 -98
131 -145 131 -159 0 -10 5 -17 10 -17 16 0 12 -30 -5 -36 -8 -4 -15 -15 -15
-25 0 -10 -7 -19 -15 -19 -8 0 -15 5 -15 10 0 6 -7 10 -15 10 -8 0 -31 15 -52
33 -21 17 -31 23 -23 12 45 -59 133 -119 360 -244 91 -50 142 -80 215 -127 39
-24 90 -54 115 -65 25 -12 48 -27 52 -33 4 -6 8 -8 8 -4 0 4 19 -4 43 -18 23
-13 67 -36 97 -50 30 -14 58 -30 61 -35 3 -5 20 -11 37 -12 19 -1 32 -8 32
-15 0 -7 5 -10 10 -7 11 7 80 -15 80 -26 0 -3 11 -5 25 -4 14 2 27 0 30 -5 3
-4 39 -8 81 -8 43 0 71 4 64 8 -8 5 -4 8 13 7 15 -1 27 -6 27 -12 0 -5 7 0 15
12 16 22 105 73 130 73 8 0 15 4 15 9 0 5 12 16 26 26 15 9 23 11 19 4 -12
-19 17 1 33 23 7 10 19 18 25 18 7 0 6 -4 -3 -10 -9 -6 -10 -10 -3 -10 6 0 18
7 27 15 8 8 19 15 25 15 6 0 11 5 11 10 0 6 7 10 15 10 8 0 15 5 15 11 0 7 10
9 25 7 21 -4 23 -3 14 13 -8 15 -6 17 7 12 11 -4 15 -1 14 13 -4 35 0 46 14
41 9 -4 16 3 21 20 3 15 11 23 19 20 8 -3 13 0 13 6 -1 31 4 48 12 43 12 -8
34 20 27 33 -3 5 14 42 39 82 25 40 45 79 45 85 0 7 5 25 11 41 13 34 18 103
7 103 -4 0 -5 14 -1 30 4 20 1 36 -10 48 -8 9 -18 27 -21 40 -4 12 -11 22 -16
22 -5 0 -7 7 -4 15 4 8 1 15 -4 15 -6 0 -13 8 -16 18 -7 21 -68 92 -78 92 -4
0 -43 35 -87 78 -43 42 -85 83 -93 90 -7 7 -33 33 -57 57 -24 25 -58 50 -76
56 -23 9 -43 28 -65 66 -18 29 -33 53 -34 53 0 0 -2 -12 -3 -26z m-718 -664
c-16 -4 -46 -8 -65 -7 l-35 0 40 7 c22 4 51 7 65 7 22 1 22 0 -5 -7z m-119 -8
c-5 -8 -116 -4 -125 4 -2 2 26 4 63 4 37 0 65 -4 62 -8z"/>
<path d="M10110 1446 c0 -8 6 -16 14 -19 10 -4 12 0 9 14 -6 22 -23 26 -23 5z"/>
<path d="M6639 1119 c-23 -19 -23 -20 -2 -10 12 6 25 16 28 21 10 16 -1 12
-26 -11z"/>
<path d="M3172 1052 c43 -98 95 -129 167 -99 l32 14 -45 17 c-24 9 -74 39
-110 66 l-65 50 21 -48z"/>
<path d="M6585 1090 c-3 -5 -2 -10 4 -10 5 0 13 5 16 10 3 6 2 10 -4 10 -5 0
-13 -4 -16 -10z"/>
<path d="M3920 910 c-18 -12 -2 -12 25 0 13 6 15 9 5 9 -8 0 -22 -4 -30 -9z"/>
</g>
</svg>
