<?xml version="1.0" standalone="no"?>
<!DOCTYPE svg PUBLIC "-//W3C//DTD SVG 20010904//EN"
 "http://www.w3.org/TR/2001/REC-SVG-20010904/DTD/svg10.dtd">
<svg version="1.0" xmlns="http://www.w3.org/2000/svg"
 width="512.000000pt" height="296.000000pt" viewBox="0 0 512.000000 296.000000"
 preserveAspectRatio="xMidYMid meet">

<g transform="translate(0.000000,296.000000) scale(0.100000,-0.100000)"
fill="#000000" stroke="none">
<path d="M2653 2799 c-30 -11 -33 -28 -36 -204 l-2 -150 -60 0 -60 0 -3 164
c-1 101 -7 170 -13 178 -14 17 -75 17 -86 1 -4 -7 -10 -87 -13 -178 l-5 -165
-60 0 -60 0 -3 165 c-2 97 -8 170 -14 177 -14 17 -72 17 -87 0 -6 -8 -12 -77
-13 -178 l-3 -164 -60 0 -60 0 -3 164 c-1 101 -7 170 -13 178 -7 7 -26 13 -44
13 -18 0 -37 -6 -44 -13 -6 -8 -12 -77 -13 -178 l-3 -164 -60 0 -60 0 -5 165
c-3 91 -9 171 -13 178 -11 17 -72 15 -86 -2 -8 -9 -14 -75 -18 -175 l-6 -161
-36 -5 c-55 -9 -65 -18 -74 -67 l-9 -45 -130 -7 c-72 -3 -137 -11 -145 -17
-20 -18 -17 -76 6 -89 11 -5 76 -10 145 -10 l126 0 0 -65 0 -65 -126 0 c-69 0
-134 -5 -145 -10 -23 -13 -26 -72 -4 -90 9 -8 64 -14 145 -18 l130 -5 0 -58 0
-59 -126 0 c-69 0 -134 -5 -145 -10 -22 -12 -27 -68 -7 -88 8 -8 55 -12 145
-12 l133 0 0 -64 0 -64 -135 -4 c-149 -3 -157 -7 -153 -63 4 -45 35 -55 171
-55 l117 0 0 -60 0 -60 -123 0 c-139 0 -167 -10 -167 -60 0 -53 18 -60 161
-60 l129 0 0 -59 0 -59 -129 -4 c-88 -2 -134 -8 -145 -17 -23 -19 -21 -78 3
-91 11 -5 76 -10 145 -10 l126 0 0 -59 0 -58 -132 -8 c-73 -4 -139 -12 -145
-17 -21 -17 -16 -76 6 -88 11 -5 76 -10 145 -10 l126 0 0 -65 0 -65 -126 0
c-69 0 -134 -5 -145 -10 -22 -12 -27 -68 -7 -88 8 -8 55 -12 144 -12 l131 0 7
-49 c8 -58 18 -68 71 -73 l40 -3 8 -105 c8 -113 18 -133 62 -133 43 1 50 17
55 131 l5 107 60 0 60 0 3 -104 c1 -58 8 -111 14 -118 13 -16 70 -17 86 -1 8
8 12 49 12 120 l0 108 43 0 c88 0 87 1 87 -114 0 -66 4 -106 12 -114 16 -16
73 -15 86 1 6 7 13 60 14 118 l3 104 60 0 60 0 3 -104 c1 -58 8 -111 14 -118
6 -7 25 -13 44 -13 41 0 54 21 54 88 0 27 3 70 6 96 l7 46 58 0 59 0 0 -96 c0
-114 8 -134 55 -134 53 0 65 26 65 142 l0 98 60 0 60 0 0 -94 c0 -122 9 -146
54 -146 50 0 58 18 64 130 l5 100 57 0 57 0 6 -106 c5 -116 11 -126 62 -122
43 4 55 36 55 146 l0 92 59 0 59 0 4 -110 c4 -120 8 -130 60 -130 45 0 58 31
58 136 0 100 3 104 60 104 35 0 52 21 59 73 l6 42 138 5 c146 5 157 9 157 56
0 45 -27 54 -169 54 l-132 0 3 62 3 63 130 3 c118 2 132 4 148 23 9 12 17 29
17 39 0 38 -30 48 -167 55 l-133 8 0 58 0 59 135 0 c132 0 135 0 151 25 19 29
12 69 -13 80 -10 4 -75 10 -145 13 l-128 5 0 58 0 59 130 0 c117 0 132 2 150
20 24 24 25 49 6 76 -13 17 -29 19 -150 22 l-136 4 0 58 0 58 136 4 c121 3
137 5 150 22 8 11 14 27 14 36 0 9 -6 25 -14 36 -13 17 -29 19 -150 22 l-136
4 0 64 0 64 134 0 c109 0 138 3 150 16 22 21 20 50 -4 74 -18 18 -33 20 -150
20 l-130 0 0 59 0 59 128 6 c70 4 133 10 141 15 30 15 37 40 21 69 l-16 27
-137 3 -137 3 0 64 0 65 134 0 c128 0 136 1 150 22 40 56 7 88 -91 88 -38 0
-98 3 -132 6 -60 7 -61 7 -61 38 0 48 -23 73 -75 80 l-45 7 0 150 c0 83 -5
159 -10 169 -21 40 -64 45 -100 13 -3 -3 -7 -80 -10 -171 l-5 -167 -55 0 -55
0 -5 161 c-4 116 -9 166 -19 177 -16 20 -76 23 -88 5 -4 -7 -10 -87 -13 -178
l-5 -165 -56 -3 -56 -3 -5 165 c-4 112 -9 170 -18 181 -15 18 -76 20 -87 3 -4
-7 -10 -87 -13 -178 l-5 -165 -57 -3 -58 -3 0 164 c0 144 -2 166 -17 179 -26
22 -45 26 -70 17z m807 -1379 l0 -910 -905 0 -905 0 0 910 0 910 905 0 905 0
0 -910z"/>
<path d="M2648 1761 c-111 -36 -171 -135 -172 -280 0 -96 23 -167 71 -215 68
-68 191 -83 284 -35 37 18 39 22 39 64 l0 45 -42 -22 c-53 -27 -134 -30 -171
-5 -45 29 -61 73 -62 167 0 72 4 91 24 127 25 44 71 73 113 73 12 0 47 -11 76
-25 59 -27 66 -23 60 36 -2 25 -11 38 -34 51 -36 21 -145 32 -186 19z"/>
<path d="M1762 1752 c-9 -7 -12 -68 -10 -273 l3 -264 24 -3 c12 -2 34 -1 47 2
l24 6 0 217 c0 119 2 214 5 212 2 -3 33 -89 69 -191 86 -250 82 -242 134 -246
41 -3 43 -2 61 40 10 24 47 124 82 223 l64 180 3 -215 c2 -156 6 -216 15 -222
6 -4 28 -8 48 -8 l36 0 8 183 c7 195 -1 347 -19 359 -6 4 -37 8 -68 8 -74 0
-79 -7 -158 -215 -35 -91 -66 -165 -69 -165 -3 0 -33 75 -66 168 -34 93 -70
177 -82 190 -18 18 -33 22 -80 22 -32 0 -64 -4 -71 -8z"/>
<path d="M2962 1538 c3 -215 4 -224 26 -256 87 -121 320 -104 385 28 20 42 22
59 22 245 l0 200 -46 3 c-59 4 -59 5 -59 -211 0 -192 -7 -219 -67 -244 -47
-19 -92 -10 -126 25 -26 27 -27 30 -34 227 l-8 200 -48 3 -48 3 3 -223z"/>
</g>
</svg>
