<?xml version="1.0" standalone="no"?>
<!DOCTYPE svg PUBLIC "-//W3C//DTD SVG 20010904//EN"
 "http://www.w3.org/TR/2001/REC-SVG-20010904/DTD/svg10.dtd">
<svg version="1.0" xmlns="http://www.w3.org/2000/svg"
 width="900.000000pt" height="512.000000pt" viewBox="0 0 900.000000 512.000000"
 preserveAspectRatio="xMidYMid meet">

<g transform="translate(0.000000,512.000000) scale(0.100000,-0.100000)"
fill="#000000" stroke="none">
<path d="M2825 5106 c-17 -7 -40 -26 -50 -42 -19 -27 -20 -49 -20 -334 l-1
-305 -79 -5 c-122 -8 -146 -32 -153 -152 l-5 -78 -227 0 c-125 0 -241 -3 -259
-6 -68 -14 -105 -90 -77 -158 26 -62 45 -66 321 -66 l245 0 0 -120 0 -120
-245 0 c-276 0 -295 -4 -321 -66 -28 -68 9 -144 77 -158 18 -3 134 -6 260 -6
l229 0 0 -115 0 -115 -235 0 c-247 0 -281 -5 -316 -46 -40 -47 -30 -128 21
-164 26 -19 43 -20 279 -20 l251 0 0 -120 0 -120 -245 0 c-267 0 -287 -4 -315
-55 -18 -33 -18 -86 -1 -119 28 -51 58 -56 320 -56 l241 0 0 -114 0 -115 -249
-3 c-235 -3 -251 -4 -278 -24 -15 -11 -34 -38 -42 -60 -12 -34 -11 -44 2 -76
30 -70 40 -73 319 -73 l248 0 0 -117 0 -118 -246 0 c-212 0 -250 -2 -274 -17
-76 -44 -72 -161 5 -198 27 -12 77 -15 274 -15 l241 0 0 -114 0 -115 -249 -3
c-235 -3 -251 -4 -278 -24 -15 -11 -34 -38 -42 -60 -12 -34 -11 -44 2 -76 29
-70 41 -73 319 -76 l248 -3 0 -115 0 -114 -241 0 c-197 0 -247 -3 -274 -15
-77 -37 -81 -154 -5 -198 24 -15 62 -17 274 -17 l246 0 0 -54 c0 -80 10 -114
42 -146 26 -27 36 -29 109 -32 l81 -3 2 -192 c3 -216 8 -232 74 -260 32 -13
42 -14 76 -2 75 27 81 44 84 265 l4 194 114 0 114 0 0 -186 c0 -147 3 -193 15
-219 36 -75 153 -82 195 -12 18 29 20 51 20 225 l0 193 118 -3 117 -3 3 -194
c2 -175 4 -196 22 -222 36 -50 117 -60 164 -20 39 33 46 72 46 261 l0 180 114
0 114 0 4 -199 3 -200 28 -29 c34 -35 71 -45 121 -31 64 18 70 38 76 259 l5
195 115 0 115 0 3 -193 c3 -215 7 -233 70 -259 66 -27 142 11 156 78 3 18 6
110 6 205 l0 174 115 0 115 0 0 -180 c0 -189 7 -228 46 -261 47 -40 128 -30
164 20 18 26 20 47 22 222 l3 194 115 0 115 0 5 -195 c3 -126 9 -202 17 -216
31 -53 126 -66 173 -22 35 33 40 62 40 254 l0 184 114 0 114 0 4 -193 c3 -217
9 -236 76 -264 49 -20 103 -4 134 39 21 31 22 41 23 223 l0 190 82 3 c76 3 85
5 111 32 32 32 42 66 42 146 l0 54 245 0 c267 0 287 4 315 55 18 33 18 86 1
119 -28 51 -58 56 -320 56 l-241 0 0 114 0 115 249 3 c235 3 251 4 278 24 15
11 34 38 42 60 12 34 11 44 -2 76 -29 70 -41 73 -319 76 l-248 3 0 115 0 114
239 0 c132 0 251 4 264 9 62 24 90 95 61 156 -29 62 -44 65 -319 65 l-245 0 0
118 0 117 248 1 c241 0 250 1 280 23 43 30 59 85 39 133 -29 70 -41 73 -319
76 l-248 3 0 115 0 114 239 0 c132 0 251 4 264 9 61 23 89 93 63 155 -26 62
-45 66 -321 66 l-245 0 0 120 0 120 251 0 c236 0 253 1 279 20 51 36 61 117
21 164 -35 41 -69 46 -316 46 l-235 0 0 114 0 115 254 3 255 3 29 28 c17 16
32 41 35 57 9 43 -10 97 -42 120 -27 19 -43 20 -280 20 l-251 0 0 120 0 120
251 0 c237 0 253 1 280 20 32 23 51 77 42 120 -3 16 -18 41 -35 57 l-29 28
-253 3 -254 3 -4 77 c-7 120 -30 143 -153 152 l-80 5 -1 308 c0 292 -2 309
-21 335 -11 15 -37 33 -59 41 -34 12 -44 11 -76 -2 -72 -30 -73 -34 -76 -379
l-3 -308 -115 0 -114 0 0 299 c0 165 -4 311 -9 324 -23 61 -93 89 -155 63 -64
-27 -66 -39 -66 -381 l0 -305 -120 0 -120 0 0 311 c0 296 -1 312 -20 339 -36
51 -117 61 -164 21 -42 -36 -46 -66 -46 -376 l0 -295 -114 0 -115 0 -3 314 -3
315 -28 29 c-36 37 -84 48 -131 28 -64 -27 -66 -39 -66 -381 l0 -305 -120 0
-120 0 0 311 c0 297 -1 312 -20 340 -23 32 -77 51 -121 42 -38 -7 -75 -45 -83
-84 -3 -18 -6 -161 -6 -320 l0 -289 -115 0 -115 0 0 295 c0 310 -4 340 -46
376 -47 40 -128 30 -164 -21 -19 -27 -20 -43 -20 -339 l0 -311 -120 0 -120 0
0 305 c0 332 -2 347 -55 375 -33 18 -86 18 -119 1 -52 -29 -56 -53 -56 -380
l0 -301 -115 0 -115 0 -1 293 c0 199 -4 303 -12 326 -22 62 -94 94 -152 67z
m3425 -2661 l0 -1745 -1750 0 -1750 0 0 1745 0 1745 1750 0 1750 0 0 -1745z"/>
<path d="M3274 3701 c-17 -11 -36 -34 -43 -52 -8 -23 -11 -359 -11 -1206 0
-1279 -3 -1221 56 -1260 27 -17 83 -18 1224 -18 1141 0 1197 1 1224 18 59 39
56 -19 56 1262 0 1272 2 1222 -53 1258 -24 16 -112 17 -1224 17 -1160 0 -1199
-1 -1229 -19z m2276 -1256 l0 -1045 -1050 0 -1050 0 0 1045 0 1045 1050 0
1050 0 0 -1045z"/>
<path d="M4478 2683 c-161 -54 -238 -263 -171 -468 24 -73 103 -149 178 -171
113 -32 227 -5 295 72 34 39 64 98 58 116 -2 6 -29 18 -60 28 l-57 18 -23 -46
c-32 -63 -67 -87 -129 -86 -57 1 -93 23 -124 75 -15 26 -20 56 -23 134 -3 89
-1 105 20 144 33 64 68 86 133 86 62 0 101 -23 125 -73 16 -35 14 -34 103 -11
33 9 37 13 31 32 -39 131 -204 201 -356 150z"/>
<path d="M3550 2365 l0 -325 59 0 58 0 7 70 c4 39 5 117 1 173 -3 56 -2 131 2
166 l8 63 59 -236 58 -236 63 0 63 0 57 233 c32 127 61 238 65 246 4 7 6 -97
5 -233 l-2 -246 64 0 63 0 0 325 0 325 -100 0 -99 0 -10 -37 c-5 -21 -30 -116
-55 -211 -25 -96 -46 -177 -47 -180 -2 -21 -25 61 -110 391 l-10 37 -99 0
-100 0 0 -325z"/>
<path d="M4952 2446 c4 -239 5 -244 31 -297 42 -85 106 -118 230 -119 81 0
138 16 182 53 65 53 69 72 73 355 l4 252 -66 0 -66 0 0 -217 c0 -234 -7 -284
-45 -309 -36 -24 -95 -28 -137 -11 -67 28 -69 38 -71 301 l-2 236 -69 0 -69 0
5 -244z"/>
</g>
</svg>
